<?xml version="1.0" encoding="utf-8" standalone="no"?>
<!DOCTYPE svg PUBLIC "-//W3C//DTD SVG 1.1//EN"
  "http://www.w3.org/Graphics/SVG/1.1/DTD/svg11.dtd">
<svg xmlns:xlink="http://www.w3.org/1999/xlink" width="674.817344pt" height="275.886466pt" viewBox="0 0 674.817344 275.886466" xmlns="http://www.w3.org/2000/svg" version="1.1">
 <metadata>
  <rdf:RDF xmlns:dc="http://purl.org/dc/elements/1.1/" xmlns:cc="http://creativecommons.org/ns#" xmlns:rdf="http://www.w3.org/1999/02/22-rdf-syntax-ns#">
   <cc:Work>
    <dc:type rdf:resource="http://purl.org/dc/dcmitype/StillImage"/>
    <dc:date>2026-03-10T19:08:49.928526</dc:date>
    <dc:format>image/svg+xml</dc:format>
    <dc:creator>
     <cc:Agent>
      <dc:title>Matplotlib v3.8.0, https://matplotlib.org/</dc:title>
     </cc:Agent>
    </dc:creator>
   </cc:Work>
  </rdf:RDF>
 </metadata>
 <defs>
  <style type="text/css">*{stroke-linejoin: round; stroke-linecap: butt}</style>
 </defs>
 <g id="figure_1">
  <g id="patch_1">
   <path d="M 0 275.886466 
L 674.817344 275.886466 
L 674.817344 0 
L 0 0 
L 0 275.886466 
z
" style="fill: none"/>
  </g>
  <g id="axes_1">
   <g id="patch_2">
    <path d="M 49.062344 230.791725 
L 280.03006 230.791725 
L 280.03006 26.318125 
L 49.062344 26.318125 
L 49.062344 230.791725 
z
" style="fill: none"/>
   </g>
   <g id="PolyCollection_1">
    <defs>
     <path id="m65b6584477" d="M 106.174639 -82.570065 
L 102.814552 -82.570065 
L 102.554807 -84.163034 
L 102.270409 -85.756004 
L 101.96159 -87.348974 
L 101.629318 -88.941944 
L 101.275421 -90.534914 
L 100.90264 -92.127884 
L 100.514588 -93.720854 
L 100.115587 -95.313824 
L 99.710394 -96.906794 
L 99.30383 -98.499764 
L 98.900363 -100.092734 
L 98.503698 -101.685704 
L 98.116448 -103.278674 
L 97.739956 -104.871643 
L 97.3743 -106.464613 
L 97.018527 -108.057583 
L 96.671075 -109.650553 
L 96.330352 -111.243523 
L 95.995382 -112.836493 
L 95.666414 -114.429463 
L 95.345385 -116.022433 
L 95.036152 -117.615403 
L 94.744418 -119.208373 
L 94.477338 -120.801343 
L 94.242828 -122.394313 
L 94.048659 -123.987283 
L 93.901435 -125.580252 
L 93.805596 -127.173222 
L 93.76258 -128.766192 
L 93.770253 -130.359162 
L 93.822692 -131.952132 
L 93.910357 -133.545102 
L 94.020624 -135.138072 
L 94.138621 -136.731042 
L 94.24826 -138.324012 
L 94.333339 -139.916982 
L 94.378577 -141.509952 
L 94.370479 -143.102922 
L 94.297931 -144.695892 
L 94.152498 -146.288861 
L 93.928422 -147.881831 
L 93.622377 -149.474801 
L 93.233083 -151.067771 
L 92.760882 -152.660741 
L 92.207411 -154.253711 
L 91.57546 -155.846681 
L 90.869078 -157.439651 
L 90.093946 -159.032621 
L 89.257947 -160.625591 
L 88.371831 -162.218561 
L 87.449833 -163.811531 
L 86.510071 -165.404501 
L 85.574575 -166.99747 
L 84.668842 -168.59044 
L 83.820878 -170.18341 
L 83.059755 -171.77638 
L 82.4138 -173.36935 
L 81.908612 -174.96232 
L 81.565103 -176.55529 
L 81.397824 -178.14826 
L 81.41376 -179.74123 
L 81.611761 -181.3342 
L 81.982678 -182.92717 
L 82.510203 -184.52014 
L 83.172302 -186.11311 
L 83.943098 -187.706079 
L 84.794967 -189.299049 
L 85.700636 -190.892019 
L 86.635062 -192.484989 
L 87.576905 -194.077959 
L 88.509484 -195.670929 
L 89.421166 -197.263899 
L 90.305202 -198.856869 
L 91.159102 -200.449839 
L 91.983677 -202.042809 
L 92.781884 -203.635779 
L 93.557664 -205.228749 
L 94.31488 -206.821719 
L 95.056477 -208.414688 
L 95.783935 -210.007658 
L 96.497012 -211.600628 
L 97.193787 -213.193598 
L 97.870916 -214.786568 
L 98.524063 -216.379538 
L 99.148399 -217.972508 
L 99.739116 -219.565478 
L 100.29188 -221.158448 
L 100.8032 -222.751418 
L 101.27067 -224.344388 
L 101.693097 -225.937358 
L 102.070511 -227.530328 
L 102.404092 -229.123297 
L 102.696012 -230.716267 
L 102.949245 -232.309237 
L 103.167338 -233.902207 
L 103.354183 -235.495177 
L 103.513793 -237.088147 
L 103.650108 -238.681117 
L 103.766823 -240.274087 
L 105.222369 -240.274087 
L 105.222369 -240.274087 
L 105.339083 -238.681117 
L 105.475398 -237.088147 
L 105.635009 -235.495177 
L 105.821853 -233.902207 
L 106.039946 -232.309237 
L 106.293179 -230.716267 
L 106.5851 -229.123297 
L 106.91868 -227.530328 
L 107.296095 -225.937358 
L 107.718521 -224.344388 
L 108.185991 -222.751418 
L 108.697311 -221.158448 
L 109.250076 -219.565478 
L 109.840792 -217.972508 
L 110.465128 -216.379538 
L 111.118275 -214.786568 
L 111.795405 -213.193598 
L 112.492179 -211.600628 
L 113.205257 -210.007658 
L 113.932714 -208.414688 
L 114.674311 -206.821719 
L 115.431527 -205.228749 
L 116.207307 -203.635779 
L 117.005515 -202.042809 
L 117.830089 -200.449839 
L 118.68399 -198.856869 
L 119.568025 -197.263899 
L 120.479707 -195.670929 
L 121.412286 -194.077959 
L 122.354129 -192.484989 
L 123.288556 -190.892019 
L 124.194225 -189.299049 
L 125.046093 -187.706079 
L 125.816889 -186.11311 
L 126.478989 -184.52014 
L 127.006513 -182.92717 
L 127.377431 -181.3342 
L 127.575431 -179.74123 
L 127.591367 -178.14826 
L 127.424088 -176.55529 
L 127.08058 -174.96232 
L 126.575391 -173.36935 
L 125.929436 -171.77638 
L 125.168313 -170.18341 
L 124.32035 -168.59044 
L 123.414617 -166.99747 
L 122.47912 -165.404501 
L 121.539358 -163.811531 
L 120.61736 -162.218561 
L 119.731244 -160.625591 
L 118.895245 -159.032621 
L 118.120113 -157.439651 
L 117.413732 -155.846681 
L 116.78178 -154.253711 
L 116.228309 -152.660741 
L 115.756109 -151.067771 
L 115.366814 -149.474801 
L 115.060769 -147.881831 
L 114.836693 -146.288861 
L 114.691261 -144.695892 
L 114.618713 -143.102922 
L 114.610614 -141.509952 
L 114.655852 -139.916982 
L 114.740931 -138.324012 
L 114.850571 -136.731042 
L 114.968568 -135.138072 
L 115.078835 -133.545102 
L 115.1665 -131.952132 
L 115.218939 -130.359162 
L 115.226611 -128.766192 
L 115.183595 -127.173222 
L 115.087756 -125.580252 
L 114.940532 -123.987283 
L 114.746364 -122.394313 
L 114.511854 -120.801343 
L 114.244773 -119.208373 
L 113.953039 -117.615403 
L 113.643806 -116.022433 
L 113.322778 -114.429463 
L 112.993809 -112.836493 
L 112.65884 -111.243523 
L 112.318117 -109.650553 
L 111.970664 -108.057583 
L 111.614891 -106.464613 
L 111.249236 -104.871643 
L 110.872743 -103.278674 
L 110.485494 -101.685704 
L 110.088828 -100.092734 
L 109.685361 -98.499764 
L 109.278798 -96.906794 
L 108.873605 -95.313824 
L 108.474604 -93.720854 
L 108.086552 -92.127884 
L 107.713771 -90.534914 
L 107.359873 -88.941944 
L 107.027602 -87.348974 
L 106.718783 -85.756004 
L 106.434384 -84.163034 
L 106.174639 -82.570065 
z
" style="stroke: #7a2a35; stroke-opacity: 0.7; stroke-width: 1.3"/>
    </defs>
    <g clip-path="url(#peeef51cce7)">
     <use xlink:href="#m65b6584477" x="0" y="275.886466" style="fill: #d4a0a8; fill-opacity: 0.7; stroke: #7a2a35; stroke-opacity: 0.7; stroke-width: 1.3"/>
    </g>
   </g>
   <g id="PolyCollection_2">
    <defs>
     <path id="m832c35c090" d="M 197.330423 -54.388996 
L 196.432942 -54.388996 
L 196.398584 -55.932216 
L 196.363389 -57.475436 
L 196.326046 -59.018655 
L 196.28474 -60.561875 
L 196.237152 -62.105095 
L 196.180482 -63.648315 
L 196.111509 -65.191535 
L 196.026683 -66.734754 
L 195.922258 -68.277974 
L 195.794457 -69.821194 
L 195.63967 -71.364414 
L 195.45466 -72.907634 
L 195.236767 -74.450854 
L 194.984086 -75.994073 
L 194.695587 -77.537293 
L 194.371164 -79.080513 
L 194.011589 -80.623733 
L 193.618359 -82.166953 
L 193.193452 -83.710172 
L 192.739005 -85.253392 
L 192.25694 -86.796612 
L 191.748597 -88.339832 
L 191.214407 -89.883052 
L 190.653654 -91.426271 
L 190.064385 -92.969491 
L 189.443473 -94.512711 
L 188.786862 -96.055931 
L 188.089985 -97.599151 
L 187.348317 -99.14237 
L 186.55804 -100.68559 
L 185.716754 -102.22881 
L 184.824171 -103.77203 
L 183.882745 -105.31525 
L 182.898165 -106.858469 
L 181.879673 -108.401689 
L 180.840166 -109.944909 
L 179.79606 -111.488129 
L 178.766905 -113.031349 
L 177.774758 -114.574568 
L 176.843334 -116.117788 
L 175.996969 -117.661008 
L 175.259447 -119.204228 
L 174.652751 -120.747448 
L 174.195817 -122.290667 
L 173.903367 -123.833887 
L 173.784911 -125.377107 
L 173.843992 -126.920327 
L 174.07776 -128.463547 
L 174.476903 -130.006766 
L 175.025989 -131.549986 
L 175.704196 -133.093206 
L 176.486403 -134.636426 
L 177.344565 -136.179646 
L 178.24928 -137.722865 
L 179.171414 -139.266085 
L 180.083668 -140.809305 
L 180.96195 -142.352525 
L 181.786448 -143.895745 
L 182.542326 -145.438964 
L 183.220005 -146.982184 
L 183.815025 -148.525404 
L 184.327545 -150.068624 
L 184.761553 -151.611844 
L 185.123888 -153.155064 
L 185.423197 -154.698283 
L 185.668921 -156.241503 
L 185.870417 -157.784723 
L 186.036279 -159.327943 
L 186.173882 -160.871163 
L 186.289174 -162.414382 
L 186.386664 -163.957602 
L 186.469587 -165.500822 
L 186.540168 -167.044042 
L 186.599944 -168.587262 
L 186.650075 -170.130481 
L 186.691629 -171.673701 
L 186.725801 -173.216921 
L 186.754063 -174.760141 
L 186.77827 -176.303361 
L 186.800707 -177.84658 
L 186.824121 -179.3898 
L 186.851724 -180.93302 
L 186.887194 -182.47624 
L 186.934658 -184.01946 
L 186.998648 -185.562679 
L 187.084025 -187.105899 
L 187.195843 -188.649119 
L 187.339164 -190.192339 
L 187.518802 -191.735559 
L 187.739024 -193.278778 
L 188.003216 -194.821998 
L 188.313546 -196.365218 
L 188.670656 -197.908438 
L 189.073428 -199.451658 
L 189.518842 -200.994877 
L 190.001965 -202.538097 
L 190.516071 -204.081317 
L 191.052905 -205.624537 
L 191.603067 -207.167757 
L 202.160298 -207.167757 
L 202.160298 -207.167757 
L 202.710459 -205.624537 
L 203.247293 -204.081317 
L 203.761399 -202.538097 
L 204.244522 -200.994877 
L 204.689937 -199.451658 
L 205.092709 -197.908438 
L 205.449819 -196.365218 
L 205.760148 -194.821998 
L 206.02434 -193.278778 
L 206.244563 -191.735559 
L 206.424201 -190.192339 
L 206.567521 -188.649119 
L 206.679339 -187.105899 
L 206.764716 -185.562679 
L 206.828707 -184.01946 
L 206.876171 -182.47624 
L 206.911641 -180.93302 
L 206.939244 -179.3898 
L 206.962657 -177.84658 
L 206.985095 -176.303361 
L 207.009302 -174.760141 
L 207.037564 -173.216921 
L 207.071735 -171.673701 
L 207.11329 -170.130481 
L 207.163421 -168.587262 
L 207.223196 -167.044042 
L 207.293778 -165.500822 
L 207.3767 -163.957602 
L 207.47419 -162.414382 
L 207.589482 -160.871163 
L 207.727086 -159.327943 
L 207.892947 -157.784723 
L 208.094444 -156.241503 
L 208.340167 -154.698283 
L 208.639476 -153.155064 
L 209.001812 -151.611844 
L 209.435819 -150.068624 
L 209.948339 -148.525404 
L 210.543359 -146.982184 
L 211.221038 -145.438964 
L 211.976917 -143.895745 
L 212.801415 -142.352525 
L 213.679696 -140.809305 
L 214.59195 -139.266085 
L 215.514084 -137.722865 
L 216.418799 -136.179646 
L 217.276961 -134.636426 
L 218.059168 -133.093206 
L 218.737375 -131.549986 
L 219.286461 -130.006766 
L 219.685604 -128.463547 
L 219.919372 -126.920327 
L 219.978454 -125.377107 
L 219.859997 -123.833887 
L 219.567547 -122.290667 
L 219.110613 -120.747448 
L 218.503917 -119.204228 
L 217.766395 -117.661008 
L 216.92003 -116.117788 
L 215.988607 -114.574568 
L 214.99646 -113.031349 
L 213.967304 -111.488129 
L 212.923198 -109.944909 
L 211.883691 -108.401689 
L 210.865199 -106.858469 
L 209.880619 -105.31525 
L 208.939193 -103.77203 
L 208.046611 -102.22881 
L 207.205324 -100.68559 
L 206.415047 -99.14237 
L 205.673379 -97.599151 
L 204.976502 -96.055931 
L 204.319892 -94.512711 
L 203.69898 -92.969491 
L 203.109711 -91.426271 
L 202.548958 -89.883052 
L 202.014767 -88.339832 
L 201.506425 -86.796612 
L 201.02436 -85.253392 
L 200.569912 -83.710172 
L 200.145005 -82.166953 
L 199.751775 -80.623733 
L 199.3922 -79.080513 
L 199.067778 -77.537293 
L 198.779279 -75.994073 
L 198.526597 -74.450854 
L 198.308704 -72.907634 
L 198.123694 -71.364414 
L 197.968908 -69.821194 
L 197.841107 -68.277974 
L 197.736681 -66.734754 
L 197.651855 -65.191535 
L 197.582882 -63.648315 
L 197.526213 -62.105095 
L 197.478625 -60.561875 
L 197.437319 -59.018655 
L 197.399975 -57.475436 
L 197.364781 -55.932216 
L 197.330423 -54.388996 
z
" style="stroke: #2c4a7a; stroke-opacity: 0.7; stroke-width: 1.3"/>
    </defs>
    <g clip-path="url(#peeef51cce7)">
     <use xlink:href="#m832c35c090" x="0" y="275.886466" style="fill: #a8c4e0; fill-opacity: 0.7; stroke: #2c4a7a; stroke-opacity: 0.7; stroke-width: 1.3"/>
    </g>
   </g>
   <g id="matplotlib.axis_1">
    <g id="xtick_1">
     <g id="line2d_1">
      <defs>
       <path id="mdfa8d9ddae" d="M 0 0 
L 0 3.5 
" style="stroke: #000000; stroke-width: 0.8"/>
      </defs>
      <g>
       <use xlink:href="#mdfa8d9ddae" x="104.494596" y="230.791725" style="stroke: #000000; stroke-width: 0.8"/>
      </g>
     </g>
     <g id="text_1">
      <!-- Control -->
      <g transform="translate(86.423502 245.390162) scale(0.1 -0.1)">
       <defs>
        <path id="DejaVuSans-43" d="M 4122 4306 
L 4122 3641 
Q 3803 3938 3442 4084 
Q 3081 4231 2675 4231 
Q 1875 4231 1450 3742 
Q 1025 3253 1025 2328 
Q 1025 1406 1450 917 
Q 1875 428 2675 428 
Q 3081 428 3442 575 
Q 3803 722 4122 1019 
L 4122 359 
Q 3791 134 3420 21 
Q 3050 -91 2638 -91 
Q 1578 -91 968 557 
Q 359 1206 359 2328 
Q 359 3453 968 4101 
Q 1578 4750 2638 4750 
Q 3056 4750 3426 4639 
Q 3797 4528 4122 4306 
z
" transform="scale(0.015625)"/>
        <path id="DejaVuSans-6f" d="M 1959 3097 
Q 1497 3097 1228 2736 
Q 959 2375 959 1747 
Q 959 1119 1226 758 
Q 1494 397 1959 397 
Q 2419 397 2687 759 
Q 2956 1122 2956 1747 
Q 2956 2369 2687 2733 
Q 2419 3097 1959 3097 
z
M 1959 3584 
Q 2709 3584 3137 3096 
Q 3566 2609 3566 1747 
Q 3566 888 3137 398 
Q 2709 -91 1959 -91 
Q 1206 -91 779 398 
Q 353 888 353 1747 
Q 353 2609 779 3096 
Q 1206 3584 1959 3584 
z
" transform="scale(0.015625)"/>
        <path id="DejaVuSans-6e" d="M 3513 2113 
L 3513 0 
L 2938 0 
L 2938 2094 
Q 2938 2591 2744 2837 
Q 2550 3084 2163 3084 
Q 1697 3084 1428 2787 
Q 1159 2491 1159 1978 
L 1159 0 
L 581 0 
L 581 3500 
L 1159 3500 
L 1159 2956 
Q 1366 3272 1645 3428 
Q 1925 3584 2291 3584 
Q 2894 3584 3203 3211 
Q 3513 2838 3513 2113 
z
" transform="scale(0.015625)"/>
        <path id="DejaVuSans-74" d="M 1172 4494 
L 1172 3500 
L 2356 3500 
L 2356 3053 
L 1172 3053 
L 1172 1153 
Q 1172 725 1289 603 
Q 1406 481 1766 481 
L 2356 481 
L 2356 0 
L 1766 0 
Q 1100 0 847 248 
Q 594 497 594 1153 
L 594 3053 
L 172 3053 
L 172 3500 
L 594 3500 
L 594 4494 
L 1172 4494 
z
" transform="scale(0.015625)"/>
        <path id="DejaVuSans-72" d="M 2631 2963 
Q 2534 3019 2420 3045 
Q 2306 3072 2169 3072 
Q 1681 3072 1420 2755 
Q 1159 2438 1159 1844 
L 1159 0 
L 581 0 
L 581 3500 
L 1159 3500 
L 1159 2956 
Q 1341 3275 1631 3429 
Q 1922 3584 2338 3584 
Q 2397 3584 2469 3576 
Q 2541 3569 2628 3553 
L 2631 2963 
z
" transform="scale(0.015625)"/>
        <path id="DejaVuSans-6c" d="M 603 4863 
L 1178 4863 
L 1178 0 
L 603 0 
L 603 4863 
z
" transform="scale(0.015625)"/>
       </defs>
       <use xlink:href="#DejaVuSans-43"/>
       <use xlink:href="#DejaVuSans-6f" x="69.824219"/>
       <use xlink:href="#DejaVuSans-6e" x="131.005859"/>
       <use xlink:href="#DejaVuSans-74" x="194.384766"/>
       <use xlink:href="#DejaVuSans-72" x="233.59375"/>
       <use xlink:href="#DejaVuSans-6f" x="272.457031"/>
       <use xlink:href="#DejaVuSans-6c" x="333.638672"/>
      </g>
      <!-- (X=0) -->
      <g transform="translate(89.796939 256.587975) scale(0.1 -0.1)">
       <defs>
        <path id="DejaVuSans-28" d="M 1984 4856 
Q 1566 4138 1362 3434 
Q 1159 2731 1159 2009 
Q 1159 1288 1364 580 
Q 1569 -128 1984 -844 
L 1484 -844 
Q 1016 -109 783 600 
Q 550 1309 550 2009 
Q 550 2706 781 3412 
Q 1013 4119 1484 4856 
L 1984 4856 
z
" transform="scale(0.015625)"/>
        <path id="DejaVuSans-58" d="M 403 4666 
L 1081 4666 
L 2241 2931 
L 3406 4666 
L 4084 4666 
L 2584 2425 
L 4184 0 
L 3506 0 
L 2194 1984 
L 872 0 
L 191 0 
L 1856 2491 
L 403 4666 
z
" transform="scale(0.015625)"/>
        <path id="DejaVuSans-3d" d="M 678 2906 
L 4684 2906 
L 4684 2381 
L 678 2381 
L 678 2906 
z
M 678 1631 
L 4684 1631 
L 4684 1100 
L 678 1100 
L 678 1631 
z
" transform="scale(0.015625)"/>
        <path id="DejaVuSans-30" d="M 2034 4250 
Q 1547 4250 1301 3770 
Q 1056 3291 1056 2328 
Q 1056 1369 1301 889 
Q 1547 409 2034 409 
Q 2525 409 2770 889 
Q 3016 1369 3016 2328 
Q 3016 3291 2770 3770 
Q 2525 4250 2034 4250 
z
M 2034 4750 
Q 2819 4750 3233 4129 
Q 3647 3509 3647 2328 
Q 3647 1150 3233 529 
Q 2819 -91 2034 -91 
Q 1250 -91 836 529 
Q 422 1150 422 2328 
Q 422 3509 836 4129 
Q 1250 4750 2034 4750 
z
" transform="scale(0.015625)"/>
        <path id="DejaVuSans-29" d="M 513 4856 
L 1013 4856 
Q 1481 4119 1714 3412 
Q 1947 2706 1947 2009 
Q 1947 1309 1714 600 
Q 1481 -109 1013 -844 
L 513 -844 
Q 928 -128 1133 580 
Q 1338 1288 1338 2009 
Q 1338 2731 1133 3434 
Q 928 4138 513 4856 
z
" transform="scale(0.015625)"/>
       </defs>
       <use xlink:href="#DejaVuSans-28"/>
       <use xlink:href="#DejaVuSans-58" x="39.013672"/>
       <use xlink:href="#DejaVuSans-3d" x="107.519531"/>
       <use xlink:href="#DejaVuSans-30" x="191.308594"/>
       <use xlink:href="#DejaVuSans-29" x="254.931641"/>
      </g>
     </g>
    </g>
    <g id="xtick_2">
     <g id="line2d_2">
      <g>
       <use xlink:href="#mdfa8d9ddae" x="196.881682" y="230.791725" style="stroke: #000000; stroke-width: 0.8"/>
      </g>
     </g>
     <g id="text_2">
      <!-- Treated -->
      <g transform="translate(178.270745 245.390162) scale(0.1 -0.1)">
       <defs>
        <path id="DejaVuSans-54" d="M -19 4666 
L 3928 4666 
L 3928 4134 
L 2272 4134 
L 2272 0 
L 1638 0 
L 1638 4134 
L -19 4134 
L -19 4666 
z
" transform="scale(0.015625)"/>
        <path id="DejaVuSans-65" d="M 3597 1894 
L 3597 1613 
L 953 1613 
Q 991 1019 1311 708 
Q 1631 397 2203 397 
Q 2534 397 2845 478 
Q 3156 559 3463 722 
L 3463 178 
Q 3153 47 2828 -22 
Q 2503 -91 2169 -91 
Q 1331 -91 842 396 
Q 353 884 353 1716 
Q 353 2575 817 3079 
Q 1281 3584 2069 3584 
Q 2775 3584 3186 3129 
Q 3597 2675 3597 1894 
z
M 3022 2063 
Q 3016 2534 2758 2815 
Q 2500 3097 2075 3097 
Q 1594 3097 1305 2825 
Q 1016 2553 972 2059 
L 3022 2063 
z
" transform="scale(0.015625)"/>
        <path id="DejaVuSans-61" d="M 2194 1759 
Q 1497 1759 1228 1600 
Q 959 1441 959 1056 
Q 959 750 1161 570 
Q 1363 391 1709 391 
Q 2188 391 2477 730 
Q 2766 1069 2766 1631 
L 2766 1759 
L 2194 1759 
z
M 3341 1997 
L 3341 0 
L 2766 0 
L 2766 531 
Q 2569 213 2275 61 
Q 1981 -91 1556 -91 
Q 1019 -91 701 211 
Q 384 513 384 1019 
Q 384 1609 779 1909 
Q 1175 2209 1959 2209 
L 2766 2209 
L 2766 2266 
Q 2766 2663 2505 2880 
Q 2244 3097 1772 3097 
Q 1472 3097 1187 3025 
Q 903 2953 641 2809 
L 641 3341 
Q 956 3463 1253 3523 
Q 1550 3584 1831 3584 
Q 2591 3584 2966 3190 
Q 3341 2797 3341 1997 
z
" transform="scale(0.015625)"/>
        <path id="DejaVuSans-64" d="M 2906 2969 
L 2906 4863 
L 3481 4863 
L 3481 0 
L 2906 0 
L 2906 525 
Q 2725 213 2448 61 
Q 2172 -91 1784 -91 
Q 1150 -91 751 415 
Q 353 922 353 1747 
Q 353 2572 751 3078 
Q 1150 3584 1784 3584 
Q 2172 3584 2448 3432 
Q 2725 3281 2906 2969 
z
M 947 1747 
Q 947 1113 1208 752 
Q 1469 391 1925 391 
Q 2381 391 2643 752 
Q 2906 1113 2906 1747 
Q 2906 2381 2643 2742 
Q 2381 3103 1925 3103 
Q 1469 3103 1208 2742 
Q 947 2381 947 1747 
z
" transform="scale(0.015625)"/>
       </defs>
       <use xlink:href="#DejaVuSans-54"/>
       <use xlink:href="#DejaVuSans-72" x="46.333984"/>
       <use xlink:href="#DejaVuSans-65" x="85.197266"/>
       <use xlink:href="#DejaVuSans-61" x="146.720703"/>
       <use xlink:href="#DejaVuSans-74" x="208"/>
       <use xlink:href="#DejaVuSans-65" x="247.208984"/>
       <use xlink:href="#DejaVuSans-64" x="308.732422"/>
      </g>
      <!-- (X=1) -->
      <g transform="translate(182.184026 256.587975) scale(0.1 -0.1)">
       <defs>
        <path id="DejaVuSans-31" d="M 794 531 
L 1825 531 
L 1825 4091 
L 703 3866 
L 703 4441 
L 1819 4666 
L 2450 4666 
L 2450 531 
L 3481 531 
L 3481 0 
L 794 0 
L 794 531 
z
" transform="scale(0.015625)"/>
       </defs>
       <use xlink:href="#DejaVuSans-28"/>
       <use xlink:href="#DejaVuSans-58" x="39.013672"/>
       <use xlink:href="#DejaVuSans-3d" x="107.519531"/>
       <use xlink:href="#DejaVuSans-31" x="191.308594"/>
       <use xlink:href="#DejaVuSans-29" x="254.931641"/>
      </g>
     </g>
    </g>
   </g>
   <g id="matplotlib.axis_2">
    <g id="ytick_1">
     <g id="line2d_3">
      <defs>
       <path id="m1766db6278" d="M 0 0 
L -3.5 0 
" style="stroke: #000000; stroke-width: 0.8"/>
      </defs>
      <g>
       <use xlink:href="#m1766db6278" x="49.062344" y="206.309627" style="stroke: #000000; stroke-width: 0.8"/>
      </g>
     </g>
     <g id="text_3">
      <!-- −1 -->
      <g transform="translate(25.845938 210.488768) scale(0.11 -0.11)">
       <defs>
        <path id="DejaVuSans-2212" d="M 678 2272 
L 4684 2272 
L 4684 1741 
L 678 1741 
L 678 2272 
z
" transform="scale(0.015625)"/>
       </defs>
       <use xlink:href="#DejaVuSans-2212"/>
       <use xlink:href="#DejaVuSans-31" x="83.789062"/>
      </g>
     </g>
    </g>
    <g id="ytick_2">
     <g id="line2d_4">
      <g>
       <use xlink:href="#m1766db6278" x="49.062344" y="178.889253" style="stroke: #000000; stroke-width: 0.8"/>
      </g>
     </g>
     <g id="text_4">
      <!-- 0 -->
      <g transform="translate(35.063594 183.068394) scale(0.11 -0.11)">
       <use xlink:href="#DejaVuSans-30"/>
      </g>
     </g>
    </g>
    <g id="ytick_3">
     <g id="line2d_5">
      <g>
       <use xlink:href="#m1766db6278" x="49.062344" y="151.468879" style="stroke: #000000; stroke-width: 0.8"/>
      </g>
     </g>
     <g id="text_5">
      <!-- 1 -->
      <g transform="translate(35.063594 155.648019) scale(0.11 -0.11)">
       <use xlink:href="#DejaVuSans-31"/>
      </g>
     </g>
    </g>
    <g id="ytick_4">
     <g id="line2d_6">
      <g>
       <use xlink:href="#m1766db6278" x="49.062344" y="124.048504" style="stroke: #000000; stroke-width: 0.8"/>
      </g>
     </g>
     <g id="text_6">
      <!-- 2 -->
      <g transform="translate(35.063594 128.227645) scale(0.11 -0.11)">
       <defs>
        <path id="DejaVuSans-32" d="M 1228 531 
L 3431 531 
L 3431 0 
L 469 0 
L 469 531 
Q 828 903 1448 1529 
Q 2069 2156 2228 2338 
Q 2531 2678 2651 2914 
Q 2772 3150 2772 3378 
Q 2772 3750 2511 3984 
Q 2250 4219 1831 4219 
Q 1534 4219 1204 4116 
Q 875 4013 500 3803 
L 500 4441 
Q 881 4594 1212 4672 
Q 1544 4750 1819 4750 
Q 2544 4750 2975 4387 
Q 3406 4025 3406 3419 
Q 3406 3131 3298 2873 
Q 3191 2616 2906 2266 
Q 2828 2175 2409 1742 
Q 1991 1309 1228 531 
z
" transform="scale(0.015625)"/>
       </defs>
       <use xlink:href="#DejaVuSans-32"/>
      </g>
     </g>
    </g>
    <g id="ytick_5">
     <g id="line2d_7">
      <g>
       <use xlink:href="#m1766db6278" x="49.062344" y="96.62813" style="stroke: #000000; stroke-width: 0.8"/>
      </g>
     </g>
     <g id="text_7">
      <!-- 3 -->
      <g transform="translate(35.063594 100.807271) scale(0.11 -0.11)">
       <defs>
        <path id="DejaVuSans-33" d="M 2597 2516 
Q 3050 2419 3304 2112 
Q 3559 1806 3559 1356 
Q 3559 666 3084 287 
Q 2609 -91 1734 -91 
Q 1441 -91 1130 -33 
Q 819 25 488 141 
L 488 750 
Q 750 597 1062 519 
Q 1375 441 1716 441 
Q 2309 441 2620 675 
Q 2931 909 2931 1356 
Q 2931 1769 2642 2001 
Q 2353 2234 1838 2234 
L 1294 2234 
L 1294 2753 
L 1863 2753 
Q 2328 2753 2575 2939 
Q 2822 3125 2822 3475 
Q 2822 3834 2567 4026 
Q 2313 4219 1838 4219 
Q 1578 4219 1281 4162 
Q 984 4106 628 3988 
L 628 4550 
Q 988 4650 1302 4700 
Q 1616 4750 1894 4750 
Q 2613 4750 3031 4423 
Q 3450 4097 3450 3541 
Q 3450 3153 3228 2886 
Q 3006 2619 2597 2516 
z
" transform="scale(0.015625)"/>
       </defs>
       <use xlink:href="#DejaVuSans-33"/>
      </g>
     </g>
    </g>
    <g id="ytick_6">
     <g id="line2d_8">
      <g>
       <use xlink:href="#m1766db6278" x="49.062344" y="69.207756" style="stroke: #000000; stroke-width: 0.8"/>
      </g>
     </g>
     <g id="text_8">
      <!-- 4 -->
      <g transform="translate(35.063594 73.386896) scale(0.11 -0.11)">
       <defs>
        <path id="DejaVuSans-34" d="M 2419 4116 
L 825 1625 
L 2419 1625 
L 2419 4116 
z
M 2253 4666 
L 3047 4666 
L 3047 1625 
L 3713 1625 
L 3713 1100 
L 3047 1100 
L 3047 0 
L 2419 0 
L 2419 1100 
L 313 1100 
L 313 1709 
L 2253 4666 
z
" transform="scale(0.015625)"/>
       </defs>
       <use xlink:href="#DejaVuSans-34"/>
      </g>
     </g>
    </g>
    <g id="ytick_7">
     <g id="line2d_9">
      <g>
       <use xlink:href="#m1766db6278" x="49.062344" y="41.787381" style="stroke: #000000; stroke-width: 0.8"/>
      </g>
     </g>
     <g id="text_9">
      <!-- 5 -->
      <g transform="translate(35.063594 45.966522) scale(0.11 -0.11)">
       <defs>
        <path id="DejaVuSans-35" d="M 691 4666 
L 3169 4666 
L 3169 4134 
L 1269 4134 
L 1269 2991 
Q 1406 3038 1543 3061 
Q 1681 3084 1819 3084 
Q 2600 3084 3056 2656 
Q 3513 2228 3513 1497 
Q 3513 744 3044 326 
Q 2575 -91 1722 -91 
Q 1428 -91 1123 -41 
Q 819 9 494 109 
L 494 744 
Q 775 591 1075 516 
Q 1375 441 1709 441 
Q 2250 441 2565 725 
Q 2881 1009 2881 1497 
Q 2881 1984 2565 2268 
Q 2250 2553 1709 2553 
Q 1456 2553 1204 2497 
Q 953 2441 691 2322 
L 691 4666 
z
" transform="scale(0.015625)"/>
       </defs>
       <use xlink:href="#DejaVuSans-35"/>
      </g>
     </g>
    </g>
    <g id="text_10">
     <!-- Outcome  (Y) -->
     <g transform="translate(15.558281 164.804222) rotate(-90) scale(0.11 -0.11)">
      <defs>
       <path id="DejaVuSans-4f" d="M 2522 4238 
Q 1834 4238 1429 3725 
Q 1025 3213 1025 2328 
Q 1025 1447 1429 934 
Q 1834 422 2522 422 
Q 3209 422 3611 934 
Q 4013 1447 4013 2328 
Q 4013 3213 3611 3725 
Q 3209 4238 2522 4238 
z
M 2522 4750 
Q 3503 4750 4090 4092 
Q 4678 3434 4678 2328 
Q 4678 1225 4090 567 
Q 3503 -91 2522 -91 
Q 1538 -91 948 565 
Q 359 1222 359 2328 
Q 359 3434 948 4092 
Q 1538 4750 2522 4750 
z
" transform="scale(0.015625)"/>
       <path id="DejaVuSans-75" d="M 544 1381 
L 544 3500 
L 1119 3500 
L 1119 1403 
Q 1119 906 1312 657 
Q 1506 409 1894 409 
Q 2359 409 2629 706 
Q 2900 1003 2900 1516 
L 2900 3500 
L 3475 3500 
L 3475 0 
L 2900 0 
L 2900 538 
Q 2691 219 2414 64 
Q 2138 -91 1772 -91 
Q 1169 -91 856 284 
Q 544 659 544 1381 
z
M 1991 3584 
L 1991 3584 
z
" transform="scale(0.015625)"/>
       <path id="DejaVuSans-63" d="M 3122 3366 
L 3122 2828 
Q 2878 2963 2633 3030 
Q 2388 3097 2138 3097 
Q 1578 3097 1268 2742 
Q 959 2388 959 1747 
Q 959 1106 1268 751 
Q 1578 397 2138 397 
Q 2388 397 2633 464 
Q 2878 531 3122 666 
L 3122 134 
Q 2881 22 2623 -34 
Q 2366 -91 2075 -91 
Q 1284 -91 818 406 
Q 353 903 353 1747 
Q 353 2603 823 3093 
Q 1294 3584 2113 3584 
Q 2378 3584 2631 3529 
Q 2884 3475 3122 3366 
z
" transform="scale(0.015625)"/>
       <path id="DejaVuSans-6d" d="M 3328 2828 
Q 3544 3216 3844 3400 
Q 4144 3584 4550 3584 
Q 5097 3584 5394 3201 
Q 5691 2819 5691 2113 
L 5691 0 
L 5113 0 
L 5113 2094 
Q 5113 2597 4934 2840 
Q 4756 3084 4391 3084 
Q 3944 3084 3684 2787 
Q 3425 2491 3425 1978 
L 3425 0 
L 2847 0 
L 2847 2094 
Q 2847 2600 2669 2842 
Q 2491 3084 2119 3084 
Q 1678 3084 1418 2786 
Q 1159 2488 1159 1978 
L 1159 0 
L 581 0 
L 581 3500 
L 1159 3500 
L 1159 2956 
Q 1356 3278 1631 3431 
Q 1906 3584 2284 3584 
Q 2666 3584 2933 3390 
Q 3200 3197 3328 2828 
z
" transform="scale(0.015625)"/>
       <path id="DejaVuSans-20" transform="scale(0.015625)"/>
       <path id="DejaVuSans-59" d="M -13 4666 
L 666 4666 
L 1959 2747 
L 3244 4666 
L 3922 4666 
L 2272 2222 
L 2272 0 
L 1638 0 
L 1638 2222 
L -13 4666 
z
" transform="scale(0.015625)"/>
      </defs>
      <use xlink:href="#DejaVuSans-4f"/>
      <use xlink:href="#DejaVuSans-75" x="78.710938"/>
      <use xlink:href="#DejaVuSans-74" x="142.089844"/>
      <use xlink:href="#DejaVuSans-63" x="181.298828"/>
      <use xlink:href="#DejaVuSans-6f" x="236.279297"/>
      <use xlink:href="#DejaVuSans-6d" x="297.460938"/>
      <use xlink:href="#DejaVuSans-65" x="394.873047"/>
      <use xlink:href="#DejaVuSans-20" x="456.396484"/>
      <use xlink:href="#DejaVuSans-20" x="488.183594"/>
      <use xlink:href="#DejaVuSans-28" x="519.970703"/>
      <use xlink:href="#DejaVuSans-59" x="558.984375"/>
      <use xlink:href="#DejaVuSans-29" x="620.068359"/>
     </g>
    </g>
   </g>
   <g id="patch_3">
    <path d="M 49.062344 230.791725 
L 49.062344 26.318125 
" style="fill: none; stroke: #9e9e9e; stroke-width: 0.8; stroke-linejoin: miter; stroke-linecap: square"/>
   </g>
   <g id="patch_4">
    <path d="M 49.062344 230.791725 
L 280.03006 230.791725 
" style="fill: none; stroke: #9e9e9e; stroke-width: 0.8; stroke-linejoin: miter; stroke-linecap: square"/>
   </g>
   <g id="patch_5">
    <path d="M 229.217163 116.0798 
Q 229.217163 123.305443 229.217163 130.531085 
" style="fill: none; stroke: #444444; stroke-width: 1.6; stroke-linecap: round"/>
    <path d="M 227.017163 120.4798 
L 229.217163 116.0798 
L 231.417163 120.4798 
" style="fill: none; stroke: #444444; stroke-width: 1.6; stroke-linecap: round"/>
    <path d="M 231.417163 126.131085 
L 229.217163 130.531085 
L 227.017163 126.131085 
" style="fill: none; stroke: #444444; stroke-width: 1.6; stroke-linecap: round"/>
   </g>
   <g id="text_11">
    <!-- Treatment -->
    <g style="fill: #444444" transform="translate(241.227484 120.466999) scale(0.1 -0.1)">
     <defs>
      <path id="DejaVuSans-BoldOblique-54" d="M 488 4666 
L 4788 4666 
L 4609 3756 
L 3059 3756 
L 2328 0 
L 1125 0 
L 1856 3756 
L 306 3756 
L 488 4666 
z
" transform="scale(0.015625)"/>
      <path id="DejaVuSans-BoldOblique-72" d="M 3291 2547 
Q 3175 2613 3034 2647 
Q 2894 2681 2731 2681 
Q 2303 2681 2020 2406 
Q 1738 2131 1638 1613 
L 1319 0 
L 197 0 
L 878 3500 
L 2003 3500 
L 1881 2900 
Q 2103 3231 2436 3407 
Q 2769 3584 3175 3584 
Q 3234 3584 3309 3578 
Q 3384 3572 3488 3559 
L 3291 2547 
z
" transform="scale(0.015625)"/>
      <path id="DejaVuSans-BoldOblique-65" d="M 4025 1619 
L 3988 1441 
L 1369 1441 
Q 1369 1422 1366 1386 
Q 1363 1350 1363 1331 
Q 1363 991 1567 822 
Q 1772 653 2181 653 
Q 2534 653 2926 759 
Q 3319 866 3750 1075 
L 3578 206 
Q 3169 56 2764 -17 
Q 2359 -91 1941 -91 
Q 1122 -91 676 287 
Q 231 666 231 1356 
Q 231 1756 373 2132 
Q 516 2509 788 2822 
Q 1109 3197 1557 3390 
Q 2006 3584 2553 3584 
Q 3263 3584 3680 3206 
Q 4097 2828 4097 2188 
Q 4097 2063 4080 1923 
Q 4063 1784 4025 1619 
z
M 2969 2131 
Q 2978 2172 2983 2214 
Q 2988 2256 2988 2297 
Q 2988 2547 2838 2694 
Q 2688 2841 2431 2841 
Q 2103 2841 1873 2661 
Q 1644 2481 1522 2131 
L 2969 2131 
z
" transform="scale(0.015625)"/>
      <path id="DejaVuSans-BoldOblique-61" d="M 2106 1575 
Q 1688 1575 1473 1445 
Q 1259 1316 1259 1063 
Q 1259 872 1386 762 
Q 1513 653 1734 653 
Q 2078 653 2309 861 
Q 2541 1069 2619 1447 
L 2644 1575 
L 2106 1575 
z
M 3853 1997 
L 3463 0 
L 2344 0 
L 2438 519 
Q 2163 206 1856 57 
Q 1550 -91 1191 -91 
Q 694 -91 401 167 
Q 109 425 109 863 
Q 109 1531 626 1886 
Q 1144 2241 2119 2241 
L 2778 2241 
L 2791 2328 
Q 2800 2372 2801 2390 
Q 2803 2409 2803 2425 
Q 2803 2631 2608 2736 
Q 2413 2841 2028 2841 
Q 1681 2841 1356 2769 
Q 1031 2697 728 2553 
L 897 3406 
Q 1247 3494 1614 3539 
Q 1981 3584 2375 3584 
Q 3153 3584 3531 3317 
Q 3909 3050 3909 2503 
Q 3909 2397 3895 2270 
Q 3881 2144 3853 1997 
z
" transform="scale(0.015625)"/>
      <path id="DejaVuSans-BoldOblique-74" d="M 2303 4494 
L 2113 3500 
L 3256 3500 
L 3097 2700 
L 1953 2700 
L 1666 1219 
Q 1653 1169 1648 1134 
Q 1644 1100 1644 1069 
Q 1644 925 1739 862 
Q 1834 800 2059 800 
L 2638 800 
L 2478 0 
L 1538 0 
Q 1031 0 765 212 
Q 500 425 500 825 
Q 500 913 509 1013 
Q 519 1113 538 1216 
L 825 2700 
L 275 2700 
L 428 3500 
L 984 3500 
L 1178 4494 
L 2303 4494 
z
" transform="scale(0.015625)"/>
      <path id="DejaVuSans-BoldOblique-6d" d="M 4013 2919 
Q 4272 3241 4601 3412 
Q 4931 3584 5288 3584 
Q 5756 3584 6026 3326 
Q 6297 3069 6297 2619 
Q 6297 2525 6283 2404 
Q 6269 2284 6241 2131 
L 5825 0 
L 4697 0 
L 5050 1825 
L 5059 1872 
Q 5141 2259 5141 2369 
Q 5141 2541 5042 2641 
Q 4944 2741 4775 2741 
Q 4453 2741 4229 2477 
Q 4006 2213 3909 1722 
L 3572 0 
L 2444 0 
L 2803 1825 
Q 2850 2059 2869 2179 
Q 2888 2300 2888 2369 
Q 2888 2544 2791 2642 
Q 2694 2741 2522 2741 
Q 2213 2741 1980 2467 
Q 1747 2194 1656 1722 
L 1319 0 
L 197 0 
L 878 3500 
L 2003 3500 
L 1900 2988 
Q 2163 3284 2459 3434 
Q 2756 3584 3078 3584 
Q 3441 3584 3700 3398 
Q 3959 3213 4013 2919 
z
" transform="scale(0.015625)"/>
      <path id="DejaVuSans-BoldOblique-6e" d="M 4128 2131 
L 3713 0 
L 2591 0 
L 2944 1825 
Q 2981 2003 3001 2126 
Q 3022 2250 3022 2322 
Q 3022 2522 2911 2631 
Q 2800 2741 2597 2741 
Q 2250 2741 2001 2470 
Q 1753 2200 1656 1722 
L 1319 0 
L 197 0 
L 878 3500 
L 2003 3500 
L 1900 2988 
Q 2209 3291 2521 3437 
Q 2834 3584 3175 3584 
Q 3659 3584 3921 3331 
Q 4184 3078 4184 2619 
Q 4184 2519 4170 2397 
Q 4156 2275 4128 2131 
z
" transform="scale(0.015625)"/>
     </defs>
     <use xlink:href="#DejaVuSans-BoldOblique-54"/>
     <use xlink:href="#DejaVuSans-BoldOblique-72" x="57.212891"/>
     <use xlink:href="#DejaVuSans-BoldOblique-65" x="106.529297"/>
     <use xlink:href="#DejaVuSans-BoldOblique-61" x="174.351562"/>
     <use xlink:href="#DejaVuSans-BoldOblique-74" x="241.832031"/>
     <use xlink:href="#DejaVuSans-BoldOblique-6d" x="289.634766"/>
     <use xlink:href="#DejaVuSans-BoldOblique-65" x="393.833984"/>
     <use xlink:href="#DejaVuSans-BoldOblique-6e" x="461.65625"/>
     <use xlink:href="#DejaVuSans-BoldOblique-74" x="532.847656"/>
    </g>
    <!-- contrast -->
    <g style="fill: #444444" transform="translate(241.227484 131.664811) scale(0.1 -0.1)">
     <defs>
      <path id="DejaVuSans-BoldOblique-63" d="M 3719 3391 
L 3541 2478 
Q 3316 2628 3097 2706 
Q 2878 2784 2669 2784 
Q 2122 2784 1775 2417 
Q 1428 2050 1428 1478 
Q 1428 1113 1643 911 
Q 1859 709 2253 709 
Q 2516 709 2769 787 
Q 3022 866 3250 1019 
L 3078 103 
Q 2800 6 2519 -42 
Q 2238 -91 1953 -91 
Q 1128 -91 683 279 
Q 238 650 238 1331 
Q 238 1759 402 2162 
Q 566 2566 872 2888 
Q 1213 3241 1653 3412 
Q 2094 3584 2669 3584 
Q 2934 3584 3196 3536 
Q 3459 3488 3719 3391 
z
" transform="scale(0.015625)"/>
      <path id="DejaVuSans-BoldOblique-6f" d="M 2400 2784 
Q 1966 2784 1684 2390 
Q 1403 1997 1403 1388 
Q 1403 1056 1554 882 
Q 1706 709 1997 709 
Q 2431 709 2712 1104 
Q 2994 1500 2994 2113 
Q 2994 2441 2842 2612 
Q 2691 2784 2400 2784 
z
M 2491 3584 
Q 3272 3584 3719 3187 
Q 4166 2791 4166 2106 
Q 4166 1709 4025 1336 
Q 3884 963 3616 653 
Q 3297 284 2862 96 
Q 2428 -91 1894 -91 
Q 1122 -91 676 306 
Q 231 703 231 1388 
Q 231 1781 375 2157 
Q 519 2534 788 2847 
Q 1100 3209 1533 3396 
Q 1966 3584 2491 3584 
z
" transform="scale(0.015625)"/>
      <path id="DejaVuSans-BoldOblique-73" d="M 3584 3391 
L 3419 2522 
Q 3091 2678 2766 2759 
Q 2441 2841 2150 2841 
Q 1819 2841 1639 2755 
Q 1459 2669 1459 2509 
Q 1459 2416 1559 2359 
Q 1659 2303 1953 2241 
L 2156 2203 
Q 2834 2059 3106 1832 
Q 3378 1606 3378 1203 
Q 3378 594 2900 251 
Q 2422 -91 1563 -91 
Q 1203 -91 828 -34 
Q 453 22 63 134 
L 231 1013 
Q 534 834 879 743 
Q 1225 653 1588 653 
Q 1941 653 2119 737 
Q 2297 822 2297 984 
Q 2297 1097 2197 1159 
Q 2097 1222 1784 1288 
L 1581 1325 
Q 981 1450 725 1694 
Q 469 1938 469 2369 
Q 469 2953 911 3268 
Q 1353 3584 2175 3584 
Q 2534 3584 2882 3536 
Q 3231 3488 3584 3391 
z
" transform="scale(0.015625)"/>
     </defs>
     <use xlink:href="#DejaVuSans-BoldOblique-63"/>
     <use xlink:href="#DejaVuSans-BoldOblique-6f" x="59.277344"/>
     <use xlink:href="#DejaVuSans-BoldOblique-6e" x="127.978516"/>
     <use xlink:href="#DejaVuSans-BoldOblique-74" x="199.169922"/>
     <use xlink:href="#DejaVuSans-BoldOblique-72" x="246.972656"/>
     <use xlink:href="#DejaVuSans-BoldOblique-61" x="296.289062"/>
     <use xlink:href="#DejaVuSans-BoldOblique-73" x="363.769531"/>
     <use xlink:href="#DejaVuSans-BoldOblique-74" x="423.291016"/>
    </g>
   </g>
   <g id="text_12">
    <!-- Naive ATE -->
    <g style="fill: #212121" transform="translate(130.979014 16.318125) scale(0.12 -0.12)">
     <defs>
      <path id="DejaVuSans-Bold-4e" d="M 588 4666 
L 1931 4666 
L 3628 1466 
L 3628 4666 
L 4769 4666 
L 4769 0 
L 3425 0 
L 1728 3200 
L 1728 0 
L 588 0 
L 588 4666 
z
" transform="scale(0.015625)"/>
      <path id="DejaVuSans-Bold-61" d="M 2106 1575 
Q 1756 1575 1579 1456 
Q 1403 1338 1403 1106 
Q 1403 894 1545 773 
Q 1688 653 1941 653 
Q 2256 653 2472 879 
Q 2688 1106 2688 1447 
L 2688 1575 
L 2106 1575 
z
M 3816 1997 
L 3816 0 
L 2688 0 
L 2688 519 
Q 2463 200 2181 54 
Q 1900 -91 1497 -91 
Q 953 -91 614 226 
Q 275 544 275 1050 
Q 275 1666 698 1953 
Q 1122 2241 2028 2241 
L 2688 2241 
L 2688 2328 
Q 2688 2594 2478 2717 
Q 2269 2841 1825 2841 
Q 1466 2841 1156 2769 
Q 847 2697 581 2553 
L 581 3406 
Q 941 3494 1303 3539 
Q 1666 3584 2028 3584 
Q 2975 3584 3395 3211 
Q 3816 2838 3816 1997 
z
" transform="scale(0.015625)"/>
      <path id="DejaVuSans-Bold-69" d="M 538 3500 
L 1656 3500 
L 1656 0 
L 538 0 
L 538 3500 
z
M 538 4863 
L 1656 4863 
L 1656 3950 
L 538 3950 
L 538 4863 
z
" transform="scale(0.015625)"/>
      <path id="DejaVuSans-Bold-76" d="M 97 3500 
L 1216 3500 
L 2088 1081 
L 2956 3500 
L 4078 3500 
L 2700 0 
L 1472 0 
L 97 3500 
z
" transform="scale(0.015625)"/>
      <path id="DejaVuSans-Bold-65" d="M 4031 1759 
L 4031 1441 
L 1416 1441 
Q 1456 1047 1700 850 
Q 1944 653 2381 653 
Q 2734 653 3104 758 
Q 3475 863 3866 1075 
L 3866 213 
Q 3469 63 3072 -14 
Q 2675 -91 2278 -91 
Q 1328 -91 801 392 
Q 275 875 275 1747 
Q 275 2603 792 3093 
Q 1309 3584 2216 3584 
Q 3041 3584 3536 3087 
Q 4031 2591 4031 1759 
z
M 2881 2131 
Q 2881 2450 2695 2645 
Q 2509 2841 2209 2841 
Q 1884 2841 1681 2658 
Q 1478 2475 1428 2131 
L 2881 2131 
z
" transform="scale(0.015625)"/>
      <path id="DejaVuSans-Bold-20" transform="scale(0.015625)"/>
      <path id="DejaVuSans-Bold-41" d="M 3419 850 
L 1538 850 
L 1241 0 
L 31 0 
L 1759 4666 
L 3194 4666 
L 4922 0 
L 3713 0 
L 3419 850 
z
M 1838 1716 
L 3116 1716 
L 2478 3572 
L 1838 1716 
z
" transform="scale(0.015625)"/>
      <path id="DejaVuSans-Bold-54" d="M 31 4666 
L 4331 4666 
L 4331 3756 
L 2784 3756 
L 2784 0 
L 1581 0 
L 1581 3756 
L 31 3756 
L 31 4666 
z
" transform="scale(0.015625)"/>
      <path id="DejaVuSans-Bold-45" d="M 588 4666 
L 3834 4666 
L 3834 3756 
L 1791 3756 
L 1791 2888 
L 3713 2888 
L 3713 1978 
L 1791 1978 
L 1791 909 
L 3903 909 
L 3903 0 
L 588 0 
L 588 4666 
z
" transform="scale(0.015625)"/>
     </defs>
     <use xlink:href="#DejaVuSans-Bold-4e"/>
     <use xlink:href="#DejaVuSans-Bold-61" x="83.691406"/>
     <use xlink:href="#DejaVuSans-Bold-69" x="151.171875"/>
     <use xlink:href="#DejaVuSans-Bold-76" x="185.449219"/>
     <use xlink:href="#DejaVuSans-Bold-65" x="250.634766"/>
     <use xlink:href="#DejaVuSans-Bold-20" x="318.457031"/>
     <use xlink:href="#DejaVuSans-Bold-41" x="353.271484"/>
     <use xlink:href="#DejaVuSans-Bold-54" x="422.914062"/>
     <use xlink:href="#DejaVuSans-Bold-45" x="491.126953"/>
    </g>
   </g>
   <g id="line2d_10">
    <defs>
     <path id="m740f1df2e6" d="M 0 3 
C 0.795609 3 1.55874 2.683901 2.12132 2.12132 
C 2.683901 1.55874 3 0.795609 3 0 
C 3 -0.795609 2.683901 -1.55874 2.12132 -2.12132 
C 1.55874 -2.683901 0.795609 -3 0 -3 
C -0.795609 -3 -1.55874 -2.683901 -2.12132 -2.12132 
C -2.683901 -1.55874 -3 -0.795609 -3 0 
C -3 0.795609 -2.683901 1.55874 -2.12132 2.12132 
C -1.55874 2.683901 -0.795609 3 0 3 
z
" style="stroke: #7a2a35"/>
    </defs>
    <g clip-path="url(#peeef51cce7)">
     <use xlink:href="#m740f1df2e6" x="104.494596" y="112.293159" style="fill: #7a2a35; stroke: #7a2a35"/>
    </g>
   </g>
   <g id="LineCollection_1">
    <path d="M 87.86492 112.293159 
L 121.124271 112.293159 
" clip-path="url(#peeef51cce7)" style="fill: none; stroke: #7a2a35; stroke-width: 1.8"/>
   </g>
   <g id="line2d_11">
    <defs>
     <path id="mc19451e4a8" d="M 0 3 
C 0.795609 3 1.55874 2.683901 2.12132 2.12132 
C 2.683901 1.55874 3 0.795609 3 0 
C 3 -0.795609 2.683901 -1.55874 2.12132 -2.12132 
C 1.55874 -2.683901 0.795609 -3 0 -3 
C -0.795609 -3 -1.55874 -2.683901 -2.12132 -2.12132 
C -2.683901 -1.55874 -3 -0.795609 -3 0 
C -3 0.795609 -2.683901 1.55874 -2.12132 2.12132 
C -1.55874 2.683901 -0.795609 3 0 3 
z
" style="stroke: #2c4a7a"/>
    </defs>
    <g clip-path="url(#peeef51cce7)">
     <use xlink:href="#mc19451e4a8" x="196.881682" y="134.319901" style="fill: #2c4a7a; stroke: #2c4a7a"/>
    </g>
   </g>
   <g id="LineCollection_2">
    <path d="M 180.252007 134.319901 
L 213.511358 134.319901 
" clip-path="url(#peeef51cce7)" style="fill: none; stroke: #2c4a7a; stroke-width: 1.8"/>
   </g>
  </g>
  <g id="axes_2">
   <g id="patch_6">
    <path d="M 321.165769 230.791725 
L 667.617344 230.791725 
L 667.617344 26.318125 
L 321.165769 26.318125 
L 321.165769 230.791725 
z
" style="fill: none"/>
   </g>
   <g id="PolyCollection_3">
    <defs>
     <path id="m2eb9c432eb" d="M 383.652626 -127.955252 
L 380.955939 -127.955252 
L 380.822188 -129.089786 
L 380.694114 -130.224319 
L 380.572561 -131.358853 
L 380.457344 -132.493387 
L 380.347157 -133.62792 
L 380.239511 -134.762454 
L 380.130686 -135.896988 
L 380.015704 -137.031521 
L 379.888341 -138.166055 
L 379.74121 -139.300589 
L 379.566001 -140.435123 
L 379.35391 -141.569656 
L 379.096305 -142.70419 
L 378.785611 -143.838724 
L 378.416333 -144.973257 
L 377.986078 -146.107791 
L 377.49638 -147.242325 
L 376.953121 -148.376858 
L 376.366367 -149.511392 
L 375.749523 -150.645926 
L 375.117813 -151.780459 
L 374.486248 -152.914993 
L 373.867338 -154.049527 
L 373.26891 -155.18406 
L 372.692427 -156.318594 
L 372.13212 -157.453128 
L 371.575175 -158.587662 
L 371.003021 -159.722195 
L 370.393597 -160.856729 
L 369.724311 -161.991263 
L 368.975278 -163.125796 
L 368.132393 -164.26033 
L 367.189824 -165.394864 
L 366.151601 -166.529397 
L 365.032142 -167.663931 
L 363.855692 -168.798465 
L 362.654821 -169.932998 
L 361.468183 -171.067532 
L 360.337834 -172.202066 
L 359.306352 -173.336599 
L 358.414032 -174.471133 
L 357.696306 -175.605667 
L 357.18157 -176.740201 
L 356.889492 -177.874734 
L 356.829902 -179.009268 
L 357.0023 -180.143802 
L 357.396028 -181.278335 
L 357.991071 -182.412869 
L 358.759445 -183.547403 
L 359.66706 -184.681936 
L 360.675904 -185.81647 
L 361.74638 -186.951004 
L 362.839616 -188.085537 
L 363.919599 -189.220071 
L 364.954995 -190.354605 
L 365.920575 -191.489138 
L 366.798183 -192.623672 
L 367.577233 -193.758206 
L 368.254717 -194.892739 
L 368.834752 -196.027273 
L 369.327691 -197.161807 
L 369.748876 -198.296341 
L 370.117096 -199.430874 
L 370.452883 -200.565408 
L 370.776774 -201.699942 
L 371.107668 -202.834475 
L 371.461436 -203.969009 
L 371.849868 -205.103543 
L 372.280066 -206.238076 
L 372.754284 -207.37261 
L 373.270217 -208.507144 
L 373.821675 -209.641677 
L 374.399528 -210.776211 
L 374.992819 -211.910745 
L 375.589902 -213.045278 
L 376.179488 -214.179812 
L 376.751504 -215.314346 
L 377.297696 -216.44888 
L 377.811952 -217.583413 
L 378.290354 -218.717947 
L 378.730989 -219.852481 
L 379.1336 -220.987014 
L 379.499129 -222.121548 
L 379.829248 -223.256082 
L 380.125933 -224.390615 
L 380.391132 -225.525149 
L 380.626577 -226.659683 
L 380.833724 -227.794216 
L 381.013827 -228.92875 
L 381.1681 -230.063284 
L 381.297925 -231.197817 
L 381.405052 -232.332351 
L 381.491736 -233.466885 
L 381.560788 -234.601419 
L 381.615506 -235.735952 
L 381.659503 -236.870486 
L 381.696454 -238.00502 
L 381.729803 -239.139553 
L 381.762484 -240.274087 
L 382.84608 -240.274087 
L 382.84608 -240.274087 
L 382.878762 -239.139553 
L 382.912111 -238.00502 
L 382.949061 -236.870486 
L 382.993059 -235.735952 
L 383.047777 -234.601419 
L 383.116829 -233.466885 
L 383.203513 -232.332351 
L 383.310639 -231.197817 
L 383.440465 -230.063284 
L 383.594738 -228.92875 
L 383.774841 -227.794216 
L 383.981988 -226.659683 
L 384.217433 -225.525149 
L 384.482632 -224.390615 
L 384.779316 -223.256082 
L 385.109436 -222.121548 
L 385.474965 -220.987014 
L 385.877576 -219.852481 
L 386.318211 -218.717947 
L 386.796613 -217.583413 
L 387.310869 -216.44888 
L 387.857061 -215.314346 
L 388.429076 -214.179812 
L 389.018662 -213.045278 
L 389.615746 -211.910745 
L 390.209037 -210.776211 
L 390.78689 -209.641677 
L 391.338348 -208.507144 
L 391.854281 -207.37261 
L 392.328499 -206.238076 
L 392.758697 -205.103543 
L 393.147129 -203.969009 
L 393.500896 -202.834475 
L 393.831791 -201.699942 
L 394.155682 -200.565408 
L 394.491469 -199.430874 
L 394.859689 -198.296341 
L 395.280874 -197.161807 
L 395.773813 -196.027273 
L 396.353847 -194.892739 
L 397.031331 -193.758206 
L 397.810381 -192.623672 
L 398.68799 -191.489138 
L 399.653569 -190.354605 
L 400.688966 -189.220071 
L 401.768949 -188.085537 
L 402.862185 -186.951004 
L 403.932661 -185.81647 
L 404.941505 -184.681936 
L 405.84912 -183.547403 
L 406.617494 -182.412869 
L 407.212536 -181.278335 
L 407.606264 -180.143802 
L 407.778663 -179.009268 
L 407.719072 -177.874734 
L 407.426995 -176.740201 
L 406.912259 -175.605667 
L 406.194533 -174.471133 
L 405.302212 -173.336599 
L 404.270731 -172.202066 
L 403.140381 -171.067532 
L 401.953744 -169.932998 
L 400.752873 -168.798465 
L 399.576423 -167.663931 
L 398.456963 -166.529397 
L 397.418741 -165.394864 
L 396.476171 -164.26033 
L 395.633287 -163.125796 
L 394.884253 -161.991263 
L 394.214968 -160.856729 
L 393.605544 -159.722195 
L 393.03339 -158.587662 
L 392.476445 -157.453128 
L 391.916138 -156.318594 
L 391.339655 -155.18406 
L 390.741227 -154.049527 
L 390.122317 -152.914993 
L 389.490752 -151.780459 
L 388.859042 -150.645926 
L 388.242197 -149.511392 
L 387.655444 -148.376858 
L 387.112185 -147.242325 
L 386.622487 -146.107791 
L 386.192232 -144.973257 
L 385.822953 -143.838724 
L 385.512259 -142.70419 
L 385.254655 -141.569656 
L 385.042564 -140.435123 
L 384.867355 -139.300589 
L 384.720224 -138.166055 
L 384.59286 -137.031521 
L 384.477879 -135.896988 
L 384.369054 -134.762454 
L 384.261408 -133.62792 
L 384.151221 -132.493387 
L 384.036003 -131.358853 
L 383.91445 -130.224319 
L 383.786377 -129.089786 
L 383.652626 -127.955252 
z
" style="stroke: #7a2a35; stroke-opacity: 0.7; stroke-width: 1.3"/>
    </defs>
    <g clip-path="url(#p737c9704d1)">
     <use xlink:href="#m2eb9c432eb" x="0" y="275.886466" style="fill: #d4a0a8; fill-opacity: 0.7; stroke: #7a2a35; stroke-opacity: 0.7; stroke-width: 1.3"/>
    </g>
   </g>
   <g id="PolyCollection_4">
    <defs>
     <path id="m0028ec92d5" d="M 445.338658 -132.215655 
L 441.546933 -132.215655 
L 441.461563 -132.972747 
L 441.382867 -133.729839 
L 441.310335 -134.48693 
L 441.242918 -135.244022 
L 441.179005 -136.001114 
L 441.116432 -136.758206 
L 441.0525 -137.515298 
L 440.984029 -138.27239 
L 440.907433 -139.029482 
L 440.818812 -139.786574 
L 440.714065 -140.543666 
L 440.58902 -141.300758 
L 440.439565 -142.05785 
L 440.26179 -142.814942 
L 440.052122 -143.572034 
L 439.807449 -144.329126 
L 439.525232 -145.086218 
L 439.203596 -145.84331 
L 438.841401 -146.600401 
L 438.438277 -147.357493 
L 437.994647 -148.114585 
L 437.511709 -148.871677 
L 436.9914 -149.628769 
L 436.436341 -150.385861 
L 435.849753 -151.142953 
L 435.235366 -151.900045 
L 434.597317 -152.657137 
L 433.940034 -153.414229 
L 433.268124 -154.171321 
L 432.586263 -154.928413 
L 431.899079 -155.685505 
L 431.211058 -156.442597 
L 430.526445 -157.199689 
L 429.849164 -157.956781 
L 429.182751 -158.713873 
L 428.530299 -159.470964 
L 427.894428 -160.228056 
L 427.277259 -160.985148 
L 426.680424 -161.74224 
L 426.105079 -162.499332 
L 425.551941 -163.256424 
L 425.021342 -164.013516 
L 424.513289 -164.770608 
L 424.027541 -165.5277 
L 423.563682 -166.284792 
L 423.1212 -167.041884 
L 422.699559 -167.798976 
L 422.298259 -168.556068 
L 421.916888 -169.31316 
L 421.555151 -170.070252 
L 421.212884 -170.827344 
L 420.890045 -171.584435 
L 420.586697 -172.341527 
L 420.302961 -173.098619 
L 420.038965 -173.855711 
L 419.794792 -174.612803 
L 419.570411 -175.369895 
L 419.36563 -176.126987 
L 419.180045 -176.884079 
L 419.013011 -177.641171 
L 418.863633 -178.398263 
L 418.730777 -179.155355 
L 418.613103 -179.912447 
L 418.509122 -180.669539 
L 418.417271 -181.426631 
L 418.336009 -182.183723 
L 418.263922 -182.940815 
L 418.199827 -183.697907 
L 418.142883 -184.454998 
L 418.092691 -185.21209 
L 418.049372 -185.969182 
L 418.013637 -186.726274 
L 417.98682 -187.483366 
L 417.970886 -188.240458 
L 417.968415 -188.99755 
L 417.982547 -189.754642 
L 418.016908 -190.511734 
L 418.075512 -191.268826 
L 418.162639 -192.025918 
L 418.28271 -192.78301 
L 418.440152 -193.540102 
L 418.639258 -194.297194 
L 418.884064 -195.054286 
L 419.178222 -195.811378 
L 419.524896 -196.56847 
L 419.926665 -197.325561 
L 420.385438 -198.082653 
L 420.902385 -198.839745 
L 421.477882 -199.596837 
L 422.111455 -200.353929 
L 422.801749 -201.111021 
L 423.546496 -201.868113 
L 424.342496 -202.625205 
L 425.185625 -203.382297 
L 426.070844 -204.139389 
L 426.992246 -204.896481 
L 427.943121 -205.653573 
L 428.916055 -206.410665 
L 429.903062 -207.167757 
L 456.982529 -207.167757 
L 456.982529 -207.167757 
L 457.969536 -206.410665 
L 458.94247 -205.653573 
L 459.893345 -204.896481 
L 460.814747 -204.139389 
L 461.699966 -203.382297 
L 462.543095 -202.625205 
L 463.339095 -201.868113 
L 464.083842 -201.111021 
L 464.774136 -200.353929 
L 465.40771 -199.596837 
L 465.983206 -198.839745 
L 466.500153 -198.082653 
L 466.958926 -197.325561 
L 467.360695 -196.56847 
L 467.707369 -195.811378 
L 468.001527 -195.054286 
L 468.246333 -194.297194 
L 468.445439 -193.540102 
L 468.602881 -192.78301 
L 468.722952 -192.025918 
L 468.810079 -191.268826 
L 468.868683 -190.511734 
L 468.903044 -189.754642 
L 468.917176 -188.99755 
L 468.914705 -188.240458 
L 468.898771 -187.483366 
L 468.871954 -186.726274 
L 468.836219 -185.969182 
L 468.7929 -185.21209 
L 468.742708 -184.454998 
L 468.685764 -183.697907 
L 468.621669 -182.940815 
L 468.549582 -182.183723 
L 468.46832 -181.426631 
L 468.376469 -180.669539 
L 468.272488 -179.912447 
L 468.154814 -179.155355 
L 468.021958 -178.398263 
L 467.87258 -177.641171 
L 467.705546 -176.884079 
L 467.519961 -176.126987 
L 467.31518 -175.369895 
L 467.090799 -174.612803 
L 466.846626 -173.855711 
L 466.58263 -173.098619 
L 466.298894 -172.341527 
L 465.995546 -171.584435 
L 465.672707 -170.827344 
L 465.33044 -170.070252 
L 464.968703 -169.31316 
L 464.587332 -168.556068 
L 464.186032 -167.798976 
L 463.764391 -167.041884 
L 463.321909 -166.284792 
L 462.85805 -165.5277 
L 462.372302 -164.770608 
L 461.864249 -164.013516 
L 461.33365 -163.256424 
L 460.780512 -162.499332 
L 460.205167 -161.74224 
L 459.608332 -160.985148 
L 458.991164 -160.228056 
L 458.355292 -159.470964 
L 457.70284 -158.713873 
L 457.036427 -157.956781 
L 456.359146 -157.199689 
L 455.674533 -156.442597 
L 454.986512 -155.685505 
L 454.299329 -154.928413 
L 453.617467 -154.171321 
L 452.945557 -153.414229 
L 452.288274 -152.657137 
L 451.650225 -151.900045 
L 451.035838 -151.142953 
L 450.44925 -150.385861 
L 449.894191 -149.628769 
L 449.373882 -148.871677 
L 448.890944 -148.114585 
L 448.447314 -147.357493 
L 448.04419 -146.600401 
L 447.681995 -145.84331 
L 447.360359 -145.086218 
L 447.078142 -144.329126 
L 446.833469 -143.572034 
L 446.623801 -142.814942 
L 446.446026 -142.05785 
L 446.296571 -141.300758 
L 446.171526 -140.543666 
L 446.066779 -139.786574 
L 445.978158 -139.029482 
L 445.901562 -138.27239 
L 445.833091 -137.515298 
L 445.769159 -136.758206 
L 445.706586 -136.001114 
L 445.642674 -135.244022 
L 445.575256 -134.48693 
L 445.502724 -133.729839 
L 445.424028 -132.972747 
L 445.338658 -132.215655 
z
" style="stroke: #2c4a7a; stroke-opacity: 0.7; stroke-width: 1.3"/>
    </defs>
    <g clip-path="url(#p737c9704d1)">
     <use xlink:href="#m0028ec92d5" x="0" y="275.886466" style="fill: #a8c4e0; fill-opacity: 0.7; stroke: #2c4a7a; stroke-opacity: 0.7; stroke-width: 1.3"/>
    </g>
   </g>
   <g id="PolyCollection_5">
    <defs>
     <path id="m2991092619" d="M 548.672645 -82.570065 
L 542.00799 -82.570065 
L 541.670237 -83.537421 
L 541.312533 -84.504777 
L 540.932124 -85.472133 
L 540.525625 -86.439489 
L 540.089212 -87.406845 
L 539.618892 -88.374201 
L 539.110866 -89.341557 
L 538.561941 -90.308913 
L 537.969974 -91.276269 
L 537.334314 -92.243625 
L 536.656176 -93.210982 
L 535.938933 -94.178338 
L 535.188256 -95.145694 
L 534.412086 -96.11305 
L 533.620417 -97.080406 
L 532.824873 -98.047762 
L 532.038124 -99.015118 
L 531.273141 -99.982474 
L 530.542376 -100.94983 
L 529.856906 -101.917186 
L 529.22563 -102.884542 
L 528.654577 -103.851898 
L 528.146404 -104.819255 
L 527.700114 -105.786611 
L 527.311044 -106.753967 
L 526.971125 -107.721323 
L 526.669394 -108.688679 
L 526.392743 -109.656035 
L 526.12684 -110.623391 
L 525.857162 -111.590747 
L 525.570073 -112.558103 
L 525.253877 -113.525459 
L 524.89976 -114.492815 
L 524.502586 -115.460172 
L 524.061458 -116.427528 
L 523.580035 -117.394884 
L 523.066562 -118.36224 
L 522.533606 -119.329596 
L 521.997511 -120.296952 
L 521.477591 -121.264308 
L 520.995115 -122.231664 
L 520.572127 -123.19902 
L 520.230196 -124.166376 
L 519.989156 -125.133732 
L 519.865937 -126.101088 
L 519.873569 -127.068445 
L 520.020421 -128.035801 
L 520.309745 -129.003157 
L 520.739545 -129.970513 
L 521.302782 -130.937869 
L 521.98789 -131.905225 
L 522.779558 -132.872581 
L 523.659702 -133.839937 
L 524.608544 -134.807293 
L 525.605708 -135.774649 
L 526.631258 -136.742005 
L 527.666585 -137.709362 
L 528.695111 -138.676718 
L 529.702775 -139.644074 
L 530.67828 -140.61143 
L 531.613148 -141.578786 
L 532.501586 -142.546142 
L 533.340225 -143.513498 
L 534.127779 -144.480854 
L 534.86466 -145.44821 
L 535.5526 -146.415566 
L 536.194293 -147.382922 
L 536.793089 -148.350278 
L 537.352729 -149.317635 
L 537.877131 -150.284991 
L 538.370209 -151.252347 
L 538.835723 -152.219703 
L 539.277141 -153.187059 
L 539.697523 -154.154415 
L 540.099414 -155.121771 
L 540.484753 -156.089127 
L 540.854811 -157.056483 
L 541.210161 -158.023839 
L 541.550682 -158.991195 
L 541.875619 -159.958552 
L 542.183681 -160.925908 
L 542.473189 -161.893264 
L 542.742249 -162.86062 
L 542.988958 -163.827976 
L 543.211606 -164.795332 
L 543.408877 -165.762688 
L 543.58002 -166.730044 
L 543.724973 -167.6974 
L 543.844452 -168.664756 
L 543.939961 -169.632112 
L 544.013762 -170.599468 
L 544.068774 -171.566825 
L 544.10843 -172.534181 
L 544.136498 -173.501537 
L 544.156871 -174.468893 
L 544.173363 -175.436249 
L 544.189502 -176.403605 
L 544.208355 -177.370961 
L 544.232389 -178.338317 
L 546.448246 -178.338317 
L 546.448246 -178.338317 
L 546.47228 -177.370961 
L 546.491133 -176.403605 
L 546.507272 -175.436249 
L 546.523764 -174.468893 
L 546.544137 -173.501537 
L 546.572205 -172.534181 
L 546.611861 -171.566825 
L 546.666873 -170.599468 
L 546.740674 -169.632112 
L 546.836183 -168.664756 
L 546.955662 -167.6974 
L 547.100615 -166.730044 
L 547.271758 -165.762688 
L 547.469029 -164.795332 
L 547.691677 -163.827976 
L 547.938385 -162.86062 
L 548.207446 -161.893264 
L 548.496954 -160.925908 
L 548.805016 -159.958552 
L 549.129953 -158.991195 
L 549.470474 -158.023839 
L 549.825824 -157.056483 
L 550.195882 -156.089127 
L 550.581221 -155.121771 
L 550.983112 -154.154415 
L 551.403494 -153.187059 
L 551.844912 -152.219703 
L 552.310425 -151.252347 
L 552.803504 -150.284991 
L 553.327906 -149.317635 
L 553.887546 -148.350278 
L 554.486342 -147.382922 
L 555.128035 -146.415566 
L 555.815975 -145.44821 
L 556.552856 -144.480854 
L 557.34041 -143.513498 
L 558.179049 -142.546142 
L 559.067487 -141.578786 
L 560.002355 -140.61143 
L 560.97786 -139.644074 
L 561.985524 -138.676718 
L 563.01405 -137.709362 
L 564.049377 -136.742005 
L 565.074927 -135.774649 
L 566.072091 -134.807293 
L 567.020933 -133.839937 
L 567.901077 -132.872581 
L 568.692745 -131.905225 
L 569.377853 -130.937869 
L 569.94109 -129.970513 
L 570.37089 -129.003157 
L 570.660214 -128.035801 
L 570.807066 -127.068445 
L 570.814698 -126.101088 
L 570.691479 -125.133732 
L 570.450438 -124.166376 
L 570.108508 -123.19902 
L 569.68552 -122.231664 
L 569.203044 -121.264308 
L 568.683124 -120.296952 
L 568.147028 -119.329596 
L 567.614072 -118.36224 
L 567.100599 -117.394884 
L 566.619177 -116.427528 
L 566.178049 -115.460172 
L 565.780874 -114.492815 
L 565.426758 -113.525459 
L 565.110562 -112.558103 
L 564.823473 -111.590747 
L 564.553795 -110.623391 
L 564.287892 -109.656035 
L 564.011241 -108.688679 
L 563.70951 -107.721323 
L 563.36959 -106.753967 
L 562.980521 -105.786611 
L 562.534231 -104.819255 
L 562.026058 -103.851898 
L 561.455005 -102.884542 
L 560.823729 -101.917186 
L 560.138259 -100.94983 
L 559.407494 -99.982474 
L 558.642511 -99.015118 
L 557.855762 -98.047762 
L 557.060218 -97.080406 
L 556.268548 -96.11305 
L 555.492379 -95.145694 
L 554.741702 -94.178338 
L 554.024459 -93.210982 
L 553.346321 -92.243625 
L 552.71066 -91.276269 
L 552.118694 -90.308913 
L 551.569768 -89.341557 
L 551.061743 -88.374201 
L 550.591423 -87.406845 
L 550.15501 -86.439489 
L 549.748511 -85.472133 
L 549.368101 -84.504777 
L 549.010398 -83.537421 
L 548.672645 -82.570065 
z
" style="stroke: #7a2a35; stroke-opacity: 0.7; stroke-width: 1.3"/>
    </defs>
    <g clip-path="url(#p737c9704d1)">
     <use xlink:href="#m2991092619" x="0" y="275.886466" style="fill: #d4a0a8; fill-opacity: 0.7; stroke: #7a2a35; stroke-opacity: 0.7; stroke-width: 1.3"/>
    </g>
   </g>
   <g id="PolyCollection_6">
    <defs>
     <path id="med763ffb67" d="M 606.97703 -54.388996 
L 605.980632 -54.388996 
L 605.963021 -55.572804 
L 605.951593 -56.756613 
L 605.94486 -57.940421 
L 605.941048 -59.12423 
L 605.938442 -60.308038 
L 605.935663 -61.491847 
L 605.931828 -62.675655 
L 605.926532 -63.859463 
L 605.919637 -65.043272 
L 605.91092 -66.22708 
L 605.899634 -67.410889 
L 605.884104 -68.594697 
L 605.861433 -69.778506 
L 605.827406 -70.962314 
L 605.776636 -72.146122 
L 605.702933 -73.329931 
L 605.599852 -74.513739 
L 605.461341 -75.697548 
L 605.282401 -76.881356 
L 605.05965 -78.065164 
L 604.791752 -79.248973 
L 604.479642 -80.432781 
L 604.126563 -81.61659 
L 603.737913 -82.800398 
L 603.320932 -83.984207 
L 602.884256 -85.168015 
L 602.437354 -86.351823 
L 601.98985 -87.535632 
L 601.550762 -88.71944 
L 601.127662 -89.903249 
L 600.725822 -91.087057 
L 600.347442 -92.270866 
L 599.99106 -93.454674 
L 599.651288 -94.638482 
L 599.318963 -95.822291 
L 598.981768 -97.006099 
L 598.625284 -98.189908 
L 598.234356 -99.373716 
L 597.794555 -100.557524 
L 597.293538 -101.741333 
L 596.722062 -102.925141 
L 596.074534 -104.10895 
L 595.349053 -105.292758 
L 594.547043 -106.476567 
L 593.672652 -107.660375 
L 592.732158 -108.844183 
L 591.733586 -110.027992 
L 590.68666 -111.2118 
L 589.603092 -112.395609 
L 588.497082 -113.579417 
L 587.385813 -114.763226 
L 586.28968 -115.947034 
L 585.232074 -117.130842 
L 584.238627 -118.314651 
L 583.335983 -119.498459 
L 582.550292 -120.682268 
L 581.905675 -121.866076 
L 581.422922 -123.049884 
L 581.118579 -124.233693 
L 581.00445 -125.417501 
L 581.087415 -126.60131 
L 581.369375 -127.785118 
L 581.847146 -128.968927 
L 582.5122 -130.152735 
L 583.350291 -131.336543 
L 584.341161 -132.520352 
L 585.45857 -133.70416 
L 586.670926 -134.887969 
L 587.942652 -136.071777 
L 589.236256 -137.255586 
L 590.51491 -138.439394 
L 591.745149 -139.623202 
L 592.899285 -140.807011 
L 593.957169 -141.990819 
L 594.907063 -143.174628 
L 595.745577 -144.358436 
L 596.476794 -145.542244 
L 597.110813 -146.726053 
L 597.662021 -147.909861 
L 598.147328 -149.09367 
L 598.584578 -150.277478 
L 598.991201 -151.461287 
L 599.383125 -152.645095 
L 599.773909 -153.828903 
L 600.174041 -155.012712 
L 600.590415 -156.19652 
L 601.025992 -157.380329 
L 601.479735 -158.564137 
L 601.946875 -159.747946 
L 602.419558 -160.931754 
L 602.887843 -162.115562 
L 603.340943 -163.299371 
L 603.76855 -164.483179 
L 604.162044 -165.666988 
L 604.515381 -166.850796 
L 604.825553 -168.034604 
L 605.092567 -169.218413 
L 605.318998 -170.402221 
L 605.50924 -171.58603 
L 607.448421 -171.58603 
L 607.448421 -171.58603 
L 607.638663 -170.402221 
L 607.865094 -169.218413 
L 608.132108 -168.034604 
L 608.44228 -166.850796 
L 608.795617 -165.666988 
L 609.189111 -164.483179 
L 609.616719 -163.299371 
L 610.069818 -162.115562 
L 610.538103 -160.931754 
L 611.010787 -159.747946 
L 611.477927 -158.564137 
L 611.931669 -157.380329 
L 612.367246 -156.19652 
L 612.78362 -155.012712 
L 613.183753 -153.828903 
L 613.574536 -152.645095 
L 613.966461 -151.461287 
L 614.373084 -150.277478 
L 614.810333 -149.09367 
L 615.29564 -147.909861 
L 615.846848 -146.726053 
L 616.480867 -145.542244 
L 617.212084 -144.358436 
L 618.050598 -143.174628 
L 619.000492 -141.990819 
L 620.058376 -140.807011 
L 621.212512 -139.623202 
L 622.442751 -138.439394 
L 623.721406 -137.255586 
L 625.01501 -136.071777 
L 626.286735 -134.887969 
L 627.499092 -133.70416 
L 628.6165 -132.520352 
L 629.60737 -131.336543 
L 630.445461 -130.152735 
L 631.110515 -128.968927 
L 631.588287 -127.785118 
L 631.870247 -126.60131 
L 631.953211 -125.417501 
L 631.839082 -124.233693 
L 631.534739 -123.049884 
L 631.051986 -121.866076 
L 630.407369 -120.682268 
L 629.621678 -119.498459 
L 628.719035 -118.314651 
L 627.725587 -117.130842 
L 626.667981 -115.947034 
L 625.571848 -114.763226 
L 624.460579 -113.579417 
L 623.354569 -112.395609 
L 622.271001 -111.2118 
L 621.224075 -110.027992 
L 620.225503 -108.844183 
L 619.28501 -107.660375 
L 618.410618 -106.476567 
L 617.608608 -105.292758 
L 616.883127 -104.10895 
L 616.235599 -102.925141 
L 615.664124 -101.741333 
L 615.163106 -100.557524 
L 614.723305 -99.373716 
L 614.332377 -98.189908 
L 613.975894 -97.006099 
L 613.638698 -95.822291 
L 613.306373 -94.638482 
L 612.966601 -93.454674 
L 612.610219 -92.270866 
L 612.231839 -91.087057 
L 611.829999 -89.903249 
L 611.406899 -88.71944 
L 610.967811 -87.535632 
L 610.520307 -86.351823 
L 610.073405 -85.168015 
L 609.636729 -83.984207 
L 609.219748 -82.800398 
L 608.831098 -81.61659 
L 608.478019 -80.432781 
L 608.165909 -79.248973 
L 607.898011 -78.065164 
L 607.67526 -76.881356 
L 607.49632 -75.697548 
L 607.357809 -74.513739 
L 607.254728 -73.329931 
L 607.181025 -72.146122 
L 607.130256 -70.962314 
L 607.096229 -69.778506 
L 607.073557 -68.594697 
L 607.058027 -67.410889 
L 607.046741 -66.22708 
L 607.038024 -65.043272 
L 607.031129 -63.859463 
L 607.025833 -62.675655 
L 607.021998 -61.491847 
L 607.019219 -60.308038 
L 607.016613 -59.12423 
L 607.012802 -57.940421 
L 607.006068 -56.756613 
L 606.99464 -55.572804 
L 606.97703 -54.388996 
z
" style="stroke: #2c4a7a; stroke-opacity: 0.7; stroke-width: 1.3"/>
    </defs>
    <g clip-path="url(#p737c9704d1)">
     <use xlink:href="#med763ffb67" x="0" y="275.886466" style="fill: #a8c4e0; fill-opacity: 0.7; stroke: #2c4a7a; stroke-opacity: 0.7; stroke-width: 1.3"/>
    </g>
   </g>
   <g id="matplotlib.axis_3">
    <g id="xtick_3">
     <g id="line2d_12">
      <g>
       <use xlink:href="#mdfa8d9ddae" x="382.304282" y="230.791725" style="stroke: #000000; stroke-width: 0.8"/>
      </g>
     </g>
     <g id="text_13">
      <!-- Ctrl -->
      <g transform="translate(374.297798 244.630319) scale(0.09 -0.09)">
       <use xlink:href="#DejaVuSans-43"/>
       <use xlink:href="#DejaVuSans-74" x="69.824219"/>
       <use xlink:href="#DejaVuSans-72" x="109.033203"/>
       <use xlink:href="#DejaVuSans-6c" x="150.146484"/>
      </g>
     </g>
    </g>
    <g id="xtick_4">
     <g id="line2d_13">
      <g>
       <use xlink:href="#mdfa8d9ddae" x="443.442796" y="230.791725" style="stroke: #000000; stroke-width: 0.8"/>
      </g>
     </g>
     <g id="text_14">
      <!-- Treat -->
      <g transform="translate(432.318655 244.630319) scale(0.09 -0.09)">
       <use xlink:href="#DejaVuSans-54"/>
       <use xlink:href="#DejaVuSans-72" x="46.333984"/>
       <use xlink:href="#DejaVuSans-65" x="85.197266"/>
       <use xlink:href="#DejaVuSans-61" x="146.720703"/>
       <use xlink:href="#DejaVuSans-74" x="208"/>
      </g>
     </g>
    </g>
    <g id="xtick_5">
     <g id="line2d_14">
      <g>
       <use xlink:href="#mdfa8d9ddae" x="545.340317" y="230.791725" style="stroke: #000000; stroke-width: 0.8"/>
      </g>
     </g>
     <g id="text_15">
      <!-- Ctrl -->
      <g transform="translate(537.333833 244.630319) scale(0.09 -0.09)">
       <use xlink:href="#DejaVuSans-43"/>
       <use xlink:href="#DejaVuSans-74" x="69.824219"/>
       <use xlink:href="#DejaVuSans-72" x="109.033203"/>
       <use xlink:href="#DejaVuSans-6c" x="150.146484"/>
      </g>
     </g>
    </g>
    <g id="xtick_6">
     <g id="line2d_15">
      <g>
       <use xlink:href="#mdfa8d9ddae" x="606.478831" y="230.791725" style="stroke: #000000; stroke-width: 0.8"/>
      </g>
     </g>
     <g id="text_16">
      <!-- Treat -->
      <g transform="translate(595.35469 244.630319) scale(0.09 -0.09)">
       <use xlink:href="#DejaVuSans-54"/>
       <use xlink:href="#DejaVuSans-72" x="46.333984"/>
       <use xlink:href="#DejaVuSans-65" x="85.197266"/>
       <use xlink:href="#DejaVuSans-61" x="146.720703"/>
       <use xlink:href="#DejaVuSans-74" x="208"/>
      </g>
     </g>
    </g>
   </g>
   <g id="matplotlib.axis_4">
    <g id="ytick_8">
     <g id="line2d_16">
      <g>
       <use xlink:href="#m1766db6278" x="321.165769" y="206.309627" style="stroke: #000000; stroke-width: 0.8"/>
      </g>
     </g>
    </g>
    <g id="ytick_9">
     <g id="line2d_17">
      <g>
       <use xlink:href="#m1766db6278" x="321.165769" y="178.889253" style="stroke: #000000; stroke-width: 0.8"/>
      </g>
     </g>
    </g>
    <g id="ytick_10">
     <g id="line2d_18">
      <g>
       <use xlink:href="#m1766db6278" x="321.165769" y="151.468879" style="stroke: #000000; stroke-width: 0.8"/>
      </g>
     </g>
    </g>
    <g id="ytick_11">
     <g id="line2d_19">
      <g>
       <use xlink:href="#m1766db6278" x="321.165769" y="124.048504" style="stroke: #000000; stroke-width: 0.8"/>
      </g>
     </g>
    </g>
    <g id="ytick_12">
     <g id="line2d_20">
      <g>
       <use xlink:href="#m1766db6278" x="321.165769" y="96.62813" style="stroke: #000000; stroke-width: 0.8"/>
      </g>
     </g>
    </g>
    <g id="ytick_13">
     <g id="line2d_21">
      <g>
       <use xlink:href="#m1766db6278" x="321.165769" y="69.207756" style="stroke: #000000; stroke-width: 0.8"/>
      </g>
     </g>
    </g>
    <g id="ytick_14">
     <g id="line2d_22">
      <g>
       <use xlink:href="#m1766db6278" x="321.165769" y="41.787381" style="stroke: #000000; stroke-width: 0.8"/>
      </g>
     </g>
    </g>
   </g>
   <g id="patch_7">
    <path d="M 321.165769 230.791725 
L 321.165769 26.318125 
" style="fill: none; stroke: #9e9e9e; stroke-width: 0.8; stroke-linejoin: miter; stroke-linecap: square"/>
   </g>
   <g id="patch_8">
    <path d="M 321.165769 230.791725 
L 667.617344 230.791725 
" style="fill: none; stroke: #9e9e9e; stroke-width: 0.8; stroke-linejoin: miter; stroke-linecap: square"/>
   </g>
   <g id="text_17">
    <!-- Z = low -->
    <g style="fill: #555555" transform="translate(392.861195 266.636545) scale(0.095 -0.095)">
     <defs>
      <path id="DejaVuSans-Bold-5a" d="M 359 4666 
L 4281 4666 
L 4281 3938 
L 1778 909 
L 4353 909 
L 4353 0 
L 288 0 
L 288 728 
L 2791 3756 
L 359 3756 
L 359 4666 
z
" transform="scale(0.015625)"/>
      <path id="DejaVuSans-Bold-3d" d="M 678 3084 
L 4684 3084 
L 4684 2350 
L 678 2350 
L 678 3084 
z
M 678 1663 
L 4684 1663 
L 4684 922 
L 678 922 
L 678 1663 
z
" transform="scale(0.015625)"/>
      <path id="DejaVuSans-Bold-6c" d="M 538 4863 
L 1656 4863 
L 1656 0 
L 538 0 
L 538 4863 
z
" transform="scale(0.015625)"/>
      <path id="DejaVuSans-Bold-6f" d="M 2203 2784 
Q 1831 2784 1636 2517 
Q 1441 2250 1441 1747 
Q 1441 1244 1636 976 
Q 1831 709 2203 709 
Q 2569 709 2762 976 
Q 2956 1244 2956 1747 
Q 2956 2250 2762 2517 
Q 2569 2784 2203 2784 
z
M 2203 3584 
Q 3106 3584 3614 3096 
Q 4122 2609 4122 1747 
Q 4122 884 3614 396 
Q 3106 -91 2203 -91 
Q 1297 -91 786 396 
Q 275 884 275 1747 
Q 275 2609 786 3096 
Q 1297 3584 2203 3584 
z
" transform="scale(0.015625)"/>
      <path id="DejaVuSans-Bold-77" d="M 225 3500 
L 1313 3500 
L 1900 1088 
L 2491 3500 
L 3425 3500 
L 4013 1113 
L 4603 3500 
L 5691 3500 
L 4769 0 
L 3547 0 
L 2956 2406 
L 2369 0 
L 1147 0 
L 225 3500 
z
" transform="scale(0.015625)"/>
     </defs>
     <use xlink:href="#DejaVuSans-Bold-5a"/>
     <use xlink:href="#DejaVuSans-Bold-20" x="72.509766"/>
     <use xlink:href="#DejaVuSans-Bold-3d" x="107.324219"/>
     <use xlink:href="#DejaVuSans-Bold-20" x="191.113281"/>
     <use xlink:href="#DejaVuSans-Bold-6c" x="225.927734"/>
     <use xlink:href="#DejaVuSans-Bold-6f" x="260.205078"/>
     <use xlink:href="#DejaVuSans-Bold-77" x="328.90625"/>
    </g>
   </g>
   <g id="patch_9">
    <path d="M 443.478619 247.149613 
Q 412.873671 247.149613 382.268723 247.149613 
" style="fill: none; stroke: #aaaaaa; stroke-linecap: round"/>
   </g>
   <g id="text_18">
    <!-- Z = high -->
    <g style="fill: #555555" transform="translate(553.38641 266.636545) scale(0.095 -0.095)">
     <defs>
      <path id="DejaVuSans-Bold-68" d="M 4056 2131 
L 4056 0 
L 2931 0 
L 2931 347 
L 2931 1625 
Q 2931 2084 2911 2256 
Q 2891 2428 2841 2509 
Q 2775 2619 2662 2680 
Q 2550 2741 2406 2741 
Q 2056 2741 1856 2470 
Q 1656 2200 1656 1722 
L 1656 0 
L 538 0 
L 538 4863 
L 1656 4863 
L 1656 2988 
Q 1909 3294 2193 3439 
Q 2478 3584 2822 3584 
Q 3428 3584 3742 3212 
Q 4056 2841 4056 2131 
z
" transform="scale(0.015625)"/>
      <path id="DejaVuSans-Bold-67" d="M 2919 594 
Q 2688 288 2409 144 
Q 2131 0 1766 0 
Q 1125 0 706 504 
Q 288 1009 288 1791 
Q 288 2575 706 3076 
Q 1125 3578 1766 3578 
Q 2131 3578 2409 3434 
Q 2688 3291 2919 2981 
L 2919 3500 
L 4044 3500 
L 4044 353 
Q 4044 -491 3511 -936 
Q 2978 -1381 1966 -1381 
Q 1638 -1381 1331 -1331 
Q 1025 -1281 716 -1178 
L 716 -306 
Q 1009 -475 1290 -558 
Q 1572 -641 1856 -641 
Q 2406 -641 2662 -400 
Q 2919 -159 2919 353 
L 2919 594 
z
M 2181 2772 
Q 1834 2772 1640 2515 
Q 1447 2259 1447 1791 
Q 1447 1309 1634 1061 
Q 1822 813 2181 813 
Q 2531 813 2725 1069 
Q 2919 1325 2919 1791 
Q 2919 2259 2725 2515 
Q 2531 2772 2181 2772 
z
" transform="scale(0.015625)"/>
     </defs>
     <use xlink:href="#DejaVuSans-Bold-5a"/>
     <use xlink:href="#DejaVuSans-Bold-20" x="72.509766"/>
     <use xlink:href="#DejaVuSans-Bold-3d" x="107.324219"/>
     <use xlink:href="#DejaVuSans-Bold-20" x="191.113281"/>
     <use xlink:href="#DejaVuSans-Bold-68" x="225.927734"/>
     <use xlink:href="#DejaVuSans-Bold-69" x="297.119141"/>
     <use xlink:href="#DejaVuSans-Bold-67" x="331.396484"/>
     <use xlink:href="#DejaVuSans-Bold-68" x="402.978516"/>
    </g>
   </g>
   <g id="patch_10">
    <path d="M 606.514654 247.149613 
Q 575.909706 247.149613 545.304758 247.149613 
" style="fill: none; stroke: #aaaaaa; stroke-linecap: round"/>
   </g>
   <g id="text_19">
    <!-- ATE Conditioned on Z -->
    <g style="fill: #212121" transform="translate(422.179681 16.318125) scale(0.12 -0.12)">
     <defs>
      <path id="DejaVuSans-Bold-43" d="M 4288 256 
Q 3956 84 3597 -3 
Q 3238 -91 2847 -91 
Q 1681 -91 1000 561 
Q 319 1213 319 2328 
Q 319 3447 1000 4098 
Q 1681 4750 2847 4750 
Q 3238 4750 3597 4662 
Q 3956 4575 4288 4403 
L 4288 3438 
Q 3953 3666 3628 3772 
Q 3303 3878 2944 3878 
Q 2300 3878 1931 3465 
Q 1563 3053 1563 2328 
Q 1563 1606 1931 1193 
Q 2300 781 2944 781 
Q 3303 781 3628 887 
Q 3953 994 4288 1222 
L 4288 256 
z
" transform="scale(0.015625)"/>
      <path id="DejaVuSans-Bold-6e" d="M 4056 2131 
L 4056 0 
L 2931 0 
L 2931 347 
L 2931 1631 
Q 2931 2084 2911 2256 
Q 2891 2428 2841 2509 
Q 2775 2619 2662 2680 
Q 2550 2741 2406 2741 
Q 2056 2741 1856 2470 
Q 1656 2200 1656 1722 
L 1656 0 
L 538 0 
L 538 3500 
L 1656 3500 
L 1656 2988 
Q 1909 3294 2193 3439 
Q 2478 3584 2822 3584 
Q 3428 3584 3742 3212 
Q 4056 2841 4056 2131 
z
" transform="scale(0.015625)"/>
      <path id="DejaVuSans-Bold-64" d="M 2919 2988 
L 2919 4863 
L 4044 4863 
L 4044 0 
L 2919 0 
L 2919 506 
Q 2688 197 2409 53 
Q 2131 -91 1766 -91 
Q 1119 -91 703 423 
Q 288 938 288 1747 
Q 288 2556 703 3070 
Q 1119 3584 1766 3584 
Q 2128 3584 2408 3439 
Q 2688 3294 2919 2988 
z
M 2181 722 
Q 2541 722 2730 984 
Q 2919 1247 2919 1747 
Q 2919 2247 2730 2509 
Q 2541 2772 2181 2772 
Q 1825 2772 1636 2509 
Q 1447 2247 1447 1747 
Q 1447 1247 1636 984 
Q 1825 722 2181 722 
z
" transform="scale(0.015625)"/>
      <path id="DejaVuSans-Bold-74" d="M 1759 4494 
L 1759 3500 
L 2913 3500 
L 2913 2700 
L 1759 2700 
L 1759 1216 
Q 1759 972 1856 886 
Q 1953 800 2241 800 
L 2816 800 
L 2816 0 
L 1856 0 
Q 1194 0 917 276 
Q 641 553 641 1216 
L 641 2700 
L 84 2700 
L 84 3500 
L 641 3500 
L 641 4494 
L 1759 4494 
z
" transform="scale(0.015625)"/>
     </defs>
     <use xlink:href="#DejaVuSans-Bold-41"/>
     <use xlink:href="#DejaVuSans-Bold-54" x="69.642578"/>
     <use xlink:href="#DejaVuSans-Bold-45" x="137.855469"/>
     <use xlink:href="#DejaVuSans-Bold-20" x="206.166016"/>
     <use xlink:href="#DejaVuSans-Bold-43" x="240.980469"/>
     <use xlink:href="#DejaVuSans-Bold-6f" x="314.369141"/>
     <use xlink:href="#DejaVuSans-Bold-6e" x="383.070312"/>
     <use xlink:href="#DejaVuSans-Bold-64" x="454.261719"/>
     <use xlink:href="#DejaVuSans-Bold-69" x="525.84375"/>
     <use xlink:href="#DejaVuSans-Bold-74" x="560.121094"/>
     <use xlink:href="#DejaVuSans-Bold-69" x="607.923828"/>
     <use xlink:href="#DejaVuSans-Bold-6f" x="642.201172"/>
     <use xlink:href="#DejaVuSans-Bold-6e" x="710.902344"/>
     <use xlink:href="#DejaVuSans-Bold-65" x="782.09375"/>
     <use xlink:href="#DejaVuSans-Bold-64" x="849.916016"/>
     <use xlink:href="#DejaVuSans-Bold-20" x="921.498047"/>
     <use xlink:href="#DejaVuSans-Bold-6f" x="956.3125"/>
     <use xlink:href="#DejaVuSans-Bold-6e" x="1025.013672"/>
     <use xlink:href="#DejaVuSans-Bold-20" x="1096.205078"/>
     <use xlink:href="#DejaVuSans-Bold-5a" x="1131.019531"/>
    </g>
   </g>
   <g id="line2d_23">
    <g clip-path="url(#p737c9704d1)">
     <use xlink:href="#m740f1df2e6" x="382.304282" y="95.131922" style="fill: #7a2a35; stroke: #7a2a35"/>
    </g>
   </g>
   <g id="LineCollection_3">
    <path d="M 363.962728 95.131922 
L 400.645836 95.131922 
" clip-path="url(#p737c9704d1)" style="fill: none; stroke: #7a2a35; stroke-width: 1.8"/>
   </g>
   <g id="line2d_24">
    <g clip-path="url(#p737c9704d1)">
     <use xlink:href="#mc19451e4a8" x="443.442796" y="95.068006" style="fill: #2c4a7a; stroke: #2c4a7a"/>
    </g>
   </g>
   <g id="LineCollection_4">
    <path d="M 425.101242 95.068006 
L 461.784349 95.068006 
" clip-path="url(#p737c9704d1)" style="fill: none; stroke: #2c4a7a; stroke-width: 1.8"/>
   </g>
   <g id="line2d_25">
    <g clip-path="url(#p737c9704d1)">
     <use xlink:href="#m740f1df2e6" x="545.340317" y="153.540342" style="fill: #7a2a35; stroke: #7a2a35"/>
    </g>
   </g>
   <g id="LineCollection_5">
    <path d="M 526.998763 153.540342 
L 563.681871 153.540342 
" clip-path="url(#p737c9704d1)" style="fill: none; stroke: #7a2a35; stroke-width: 1.8"/>
   </g>
   <g id="line2d_26">
    <g clip-path="url(#p737c9704d1)">
     <use xlink:href="#mc19451e4a8" x="606.478831" y="152.414747" style="fill: #2c4a7a; stroke: #2c4a7a"/>
    </g>
   </g>
   <g id="LineCollection_6">
    <path d="M 588.137277 152.414747 
L 624.820385 152.414747 
" clip-path="url(#p737c9704d1)" style="fill: none; stroke: #2c4a7a; stroke-width: 1.8"/>
   </g>
   <g id="legend_1">
    <g id="patch_11">
     <path d="M 569.701563 59.93875 
L 661.317344 59.93875 
Q 663.117344 59.93875 663.117344 58.13875 
L 663.117344 32.618125 
Q 663.117344 30.818125 661.317344 30.818125 
L 569.701563 30.818125 
Q 567.901563 30.818125 567.901563 32.618125 
L 567.901563 58.13875 
Q 567.901563 59.93875 569.701563 59.93875 
L 569.701563 59.93875 
z
" style="fill: none; opacity: 0.85; stroke: #bdbdbd; stroke-linejoin: miter"/>
    </g>
    <g id="patch_12">
     <path d="M 571.501563 41.256719 
L 589.501563 41.256719 
L 589.501563 34.956719 
L 571.501563 34.956719 
z
" style="fill: #d4a0a8; stroke: #7a2a35; stroke-linejoin: miter"/>
    </g>
    <g id="text_20">
     <!-- Control (X=0) -->
     <g transform="translate(596.701563 41.256719) scale(0.09 -0.09)">
      <use xlink:href="#DejaVuSans-43"/>
      <use xlink:href="#DejaVuSans-6f" x="69.824219"/>
      <use xlink:href="#DejaVuSans-6e" x="131.005859"/>
      <use xlink:href="#DejaVuSans-74" x="194.384766"/>
      <use xlink:href="#DejaVuSans-72" x="233.59375"/>
      <use xlink:href="#DejaVuSans-6f" x="272.457031"/>
      <use xlink:href="#DejaVuSans-6c" x="333.638672"/>
      <use xlink:href="#DejaVuSans-20" x="361.421875"/>
      <use xlink:href="#DejaVuSans-28" x="393.208984"/>
      <use xlink:href="#DejaVuSans-58" x="432.222656"/>
      <use xlink:href="#DejaVuSans-3d" x="500.728516"/>
      <use xlink:href="#DejaVuSans-30" x="584.517578"/>
      <use xlink:href="#DejaVuSans-29" x="648.140625"/>
     </g>
    </g>
    <g id="patch_13">
     <path d="M 571.501563 54.467031 
L 589.501563 54.467031 
L 589.501563 48.167031 
L 571.501563 48.167031 
z
" style="fill: #a8c4e0; stroke: #2c4a7a; stroke-linejoin: miter"/>
    </g>
    <g id="text_21">
     <!-- Treated (X=1) -->
     <g transform="translate(596.701563 54.467031) scale(0.09 -0.09)">
      <use xlink:href="#DejaVuSans-54"/>
      <use xlink:href="#DejaVuSans-72" x="46.333984"/>
      <use xlink:href="#DejaVuSans-65" x="85.197266"/>
      <use xlink:href="#DejaVuSans-61" x="146.720703"/>
      <use xlink:href="#DejaVuSans-74" x="208"/>
      <use xlink:href="#DejaVuSans-65" x="247.208984"/>
      <use xlink:href="#DejaVuSans-64" x="308.732422"/>
      <use xlink:href="#DejaVuSans-20" x="372.208984"/>
      <use xlink:href="#DejaVuSans-28" x="403.996094"/>
      <use xlink:href="#DejaVuSans-58" x="443.009766"/>
      <use xlink:href="#DejaVuSans-3d" x="511.515625"/>
      <use xlink:href="#DejaVuSans-31" x="595.304688"/>
      <use xlink:href="#DejaVuSans-29" x="658.927734"/>
     </g>
    </g>
   </g>
  </g>
 </g>
 <defs>
  <clipPath id="peeef51cce7">
   <rect x="49.062344" y="26.318125" width="230.967716" height="204.4736"/>
  </clipPath>
  <clipPath id="p737c9704d1">
   <rect x="321.165769" y="26.318125" width="346.451575" height="204.4736"/>
  </clipPath>
 </defs>
</svg>
