<?xml version="1.0" encoding="utf-8" standalone="no"?>
<!DOCTYPE svg PUBLIC "-//W3C//DTD SVG 1.1//EN"
  "http://www.w3.org/Graphics/SVG/1.1/DTD/svg11.dtd">
<svg xmlns:xlink="http://www.w3.org/1999/xlink" width="391.745937pt" height="268.451875pt" viewBox="0 0 391.745937 268.451875" xmlns="http://www.w3.org/2000/svg" version="1.1">
 <metadata>
  <rdf:RDF xmlns:dc="http://purl.org/dc/elements/1.1/" xmlns:cc="http://creativecommons.org/ns#" xmlns:rdf="http://www.w3.org/1999/02/22-rdf-syntax-ns#">
   <cc:Work>
    <dc:type rdf:resource="http://purl.org/dc/dcmitype/StillImage"/>
    <dc:date>2026-03-21T17:00:15.809599</dc:date>
    <dc:format>image/svg+xml</dc:format>
    <dc:creator>
     <cc:Agent>
      <dc:title>Matplotlib v3.10.6, https://matplotlib.org/</dc:title>
     </cc:Agent>
    </dc:creator>
   </cc:Work>
  </rdf:RDF>
 </metadata>
 <defs>
  <style type="text/css">*{stroke-linejoin: round; stroke-linecap: butt}</style>
 </defs>
 <g id="figure_1">
  <g id="patch_1">
   <path d="M 0 268.451875 
L 391.745937 268.451875 
L 391.745937 0 
L 0 0 
L 0 268.451875 
z
" style="fill: none"/>
  </g>
  <g id="axes_1">
   <g id="patch_2">
    <path d="M 21.845937 228.96 
L 384.545937 228.96 
L 384.545937 7.2 
L 21.845937 7.2 
L 21.845937 228.96 
z
" style="fill: none"/>
   </g>
   <g id="FillBetweenPolyCollection_1">
    <defs>
     <path id="m2ea0c2b18a" d="M 38.332301 -49.571875 
L 38.332301 -49.620259 
L 39.435068 -49.625706 
L 40.537835 -49.631722 
L 41.640602 -49.638363 
L 42.743368 -49.645689 
L 43.846135 -49.653762 
L 44.948902 -49.662654 
L 46.051669 -49.67244 
L 47.154436 -49.6832 
L 48.257202 -49.695024 
L 49.359969 -49.708006 
L 50.462736 -49.722249 
L 51.565503 -49.737863 
L 52.66827 -49.754967 
L 53.771036 -49.773689 
L 54.873803 -49.794167 
L 55.97657 -49.816547 
L 57.079337 -49.840988 
L 58.182104 -49.867658 
L 59.28487 -49.896739 
L 60.387637 -49.928423 
L 61.490404 -49.962918 
L 62.593171 -50.000443 
L 63.695937 -50.041233 
L 64.798704 -50.085537 
L 65.901471 -50.133621 
L 67.004238 -50.185767 
L 68.107005 -50.242273 
L 69.209771 -50.303456 
L 70.312538 -50.369652 
L 71.415305 -50.441215 
L 72.518072 -50.51852 
L 73.620839 -50.60196 
L 74.723605 -50.691954 
L 75.826372 -50.788938 
L 76.929139 -50.893374 
L 78.031906 -51.005744 
L 79.134673 -51.126556 
L 80.237439 -51.256341 
L 81.340206 -51.395654 
L 82.442973 -51.545076 
L 83.54574 -51.705212 
L 84.648507 -51.876693 
L 85.751273 -52.060177 
L 86.85404 -52.256345 
L 87.956807 -52.465906 
L 89.059574 -52.689593 
L 90.162341 -52.928166 
L 91.265107 -53.18241 
L 92.367874 -53.453133 
L 93.470641 -53.74117 
L 94.573408 -54.047378 
L 95.676175 -54.372636 
L 96.778941 -54.717848 
L 97.881708 -55.083935 
L 98.984475 -55.471841 
L 100.087242 -55.882527 
L 101.190009 -56.316969 
L 102.292775 -56.77616 
L 103.395542 -57.261105 
L 104.498309 -57.77282 
L 105.601076 -58.312331 
L 106.703843 -58.880668 
L 107.806609 -59.478866 
L 108.909376 -60.107959 
L 110.012143 -60.768981 
L 111.11491 -61.46296 
L 112.217677 -62.190913 
L 113.320443 -62.953847 
L 114.42321 -63.752752 
L 115.525977 -64.588597 
L 116.628744 -65.462329 
L 117.731511 -66.374865 
L 118.834277 -67.32709 
L 119.937044 -68.319852 
L 121.039811 -69.353956 
L 122.142578 -70.430162 
L 123.245345 -71.549178 
L 124.348111 -72.711657 
L 125.450878 -73.918189 
L 126.553645 -75.1693 
L 127.656412 -76.465444 
L 128.759179 -77.806999 
L 129.861945 -79.194262 
L 130.964712 -80.627445 
L 132.067479 -82.106669 
L 133.170246 -83.631959 
L 134.273013 -85.203241 
L 135.375779 -86.820335 
L 136.478546 -88.482954 
L 137.581313 -90.190697 
L 138.68408 -91.943047 
L 139.786847 -93.739365 
L 140.889613 -95.578892 
L 141.99238 -97.460737 
L 143.095147 -99.383885 
L 144.197914 -101.347185 
L 145.300681 -103.349356 
L 146.403447 -105.388979 
L 147.506214 -107.4645 
L 148.608981 -109.574229 
L 149.711748 -111.716336 
L 150.814515 -113.888859 
L 151.917281 -116.089695 
L 153.020048 -118.316611 
L 154.122815 -120.567238 
L 155.225582 -122.83908 
L 156.328349 -125.129511 
L 157.431115 -127.435783 
L 158.533882 -129.755028 
L 159.636649 -132.084265 
L 160.739416 -134.4204 
L 161.842183 -136.760239 
L 162.944949 -139.100489 
L 164.047716 -141.437766 
L 165.150483 -143.768604 
L 166.25325 -146.089461 
L 167.356017 -148.396728 
L 168.458783 -150.68674 
L 169.56155 -152.95578 
L 170.664317 -155.200094 
L 171.767084 -157.415899 
L 172.869851 -159.59939 
L 173.972617 -161.746759 
L 175.075384 -163.854196 
L 176.178151 -165.917906 
L 177.280918 -167.93412 
L 178.383685 -169.899103 
L 179.486451 -171.80917 
L 180.589218 -173.660693 
L 181.691985 -175.450116 
L 182.794752 -177.173963 
L 183.897519 -178.828853 
L 185.000285 -180.411506 
L 186.103052 -181.91876 
L 187.205819 -183.347577 
L 188.308586 -184.695053 
L 189.411353 -185.95843 
L 190.514119 -187.135107 
L 191.616886 -188.222643 
L 192.719653 -189.218772 
L 193.82242 -190.121405 
L 194.925187 -190.928642 
L 196.027953 -191.638777 
L 197.13072 -192.250303 
L 198.233487 -192.761918 
L 199.336254 -193.17253 
L 200.439021 -193.481263 
L 201.541787 -193.687453 
L 202.644554 -193.790658 
L 203.747321 -193.790658 
L 204.850088 -193.687453 
L 205.952854 -193.481263 
L 207.055621 -193.17253 
L 208.158388 -192.761918 
L 209.261155 -192.250303 
L 210.363922 -191.638777 
L 211.466688 -190.928642 
L 212.569455 -190.121405 
L 213.672222 -189.218772 
L 214.774989 -188.222643 
L 215.877756 -187.135107 
L 216.980522 -185.95843 
L 218.083289 -184.695053 
L 219.186056 -183.347577 
L 220.288823 -181.91876 
L 221.39159 -180.411506 
L 222.494356 -178.828853 
L 223.597123 -177.173963 
L 224.69989 -175.450116 
L 225.802657 -173.660693 
L 226.905424 -171.80917 
L 228.00819 -169.899103 
L 229.110957 -167.93412 
L 230.213724 -165.917906 
L 231.316491 -163.854196 
L 232.419258 -161.746759 
L 233.522024 -159.59939 
L 234.624791 -157.415899 
L 235.727558 -155.200094 
L 236.830325 -152.95578 
L 237.933092 -150.68674 
L 239.035858 -148.396728 
L 240.138625 -146.089461 
L 241.241392 -143.768604 
L 242.344159 -141.437766 
L 243.446926 -139.100489 
L 244.549692 -136.760239 
L 245.652459 -134.4204 
L 246.755226 -132.084265 
L 247.857993 -129.755028 
L 248.96076 -127.435783 
L 250.063526 -125.129511 
L 251.166293 -122.83908 
L 252.26906 -120.567238 
L 253.371827 -118.316611 
L 254.474594 -116.089695 
L 255.57736 -113.888859 
L 256.680127 -111.716336 
L 257.782894 -109.574229 
L 258.885661 -107.4645 
L 259.988428 -105.388979 
L 261.091194 -103.349356 
L 262.193961 -101.347185 
L 263.296728 -99.383885 
L 264.399495 -97.460737 
L 265.502262 -95.578892 
L 266.605028 -93.739365 
L 267.707795 -91.943047 
L 268.810562 -90.190697 
L 269.913329 -88.482954 
L 271.016096 -86.820335 
L 272.118862 -85.203241 
L 273.221629 -83.631959 
L 274.324396 -82.106669 
L 275.427163 -80.627445 
L 276.52993 -79.194262 
L 277.632696 -77.806999 
L 278.735463 -76.465444 
L 279.83823 -75.1693 
L 280.940997 -73.918189 
L 282.043764 -72.711657 
L 283.14653 -71.549178 
L 284.249297 -70.430162 
L 285.352064 -69.353956 
L 286.454831 -68.319852 
L 287.557598 -67.32709 
L 288.660364 -66.374865 
L 289.763131 -65.462329 
L 290.865898 -64.588597 
L 291.968665 -63.752752 
L 293.071432 -62.953847 
L 294.174198 -62.190913 
L 295.276965 -61.46296 
L 296.379732 -60.768981 
L 297.482499 -60.107959 
L 298.585266 -59.478866 
L 299.688032 -58.880668 
L 300.790799 -58.312331 
L 301.893566 -57.77282 
L 302.996333 -57.261105 
L 304.0991 -56.77616 
L 305.201866 -56.316969 
L 306.304633 -55.882527 
L 307.4074 -55.471841 
L 308.510167 -55.083935 
L 309.612934 -54.717848 
L 310.7157 -54.372636 
L 311.818467 -54.047378 
L 312.921234 -53.74117 
L 314.024001 -53.453133 
L 315.126768 -53.18241 
L 316.229534 -52.928166 
L 317.332301 -52.689593 
L 318.435068 -52.465906 
L 319.537835 -52.256345 
L 320.640602 -52.060177 
L 321.743368 -51.876693 
L 322.846135 -51.705212 
L 323.948902 -51.545076 
L 325.051669 -51.395654 
L 326.154436 -51.256341 
L 327.257202 -51.126556 
L 328.359969 -51.005744 
L 329.462736 -50.893374 
L 330.565503 -50.788938 
L 331.66827 -50.691954 
L 332.771036 -50.60196 
L 333.873803 -50.51852 
L 334.97657 -50.441215 
L 336.079337 -50.369652 
L 337.182104 -50.303456 
L 338.28487 -50.242273 
L 339.387637 -50.185767 
L 340.490404 -50.133621 
L 341.593171 -50.085537 
L 342.695937 -50.041233 
L 343.798704 -50.000443 
L 344.901471 -49.962918 
L 346.004238 -49.928423 
L 347.107005 -49.896739 
L 348.209771 -49.867658 
L 349.312538 -49.840988 
L 350.415305 -49.816547 
L 351.518072 -49.794167 
L 352.620839 -49.773689 
L 353.723605 -49.754967 
L 354.826372 -49.737863 
L 355.929139 -49.722249 
L 357.031906 -49.708006 
L 358.134673 -49.695024 
L 359.237439 -49.6832 
L 360.340206 -49.67244 
L 361.442973 -49.662654 
L 362.54574 -49.653762 
L 363.648507 -49.645689 
L 364.751273 -49.638363 
L 365.85404 -49.631722 
L 366.956807 -49.625706 
L 368.059574 -49.620259 
L 368.059574 -49.571875 
L 368.059574 -49.571875 
L 366.956807 -49.571875 
L 365.85404 -49.571875 
L 364.751273 -49.571875 
L 363.648507 -49.571875 
L 362.54574 -49.571875 
L 361.442973 -49.571875 
L 360.340206 -49.571875 
L 359.237439 -49.571875 
L 358.134673 -49.571875 
L 357.031906 -49.571875 
L 355.929139 -49.571875 
L 354.826372 -49.571875 
L 353.723605 -49.571875 
L 352.620839 -49.571875 
L 351.518072 -49.571875 
L 350.415305 -49.571875 
L 349.312538 -49.571875 
L 348.209771 -49.571875 
L 347.107005 -49.571875 
L 346.004238 -49.571875 
L 344.901471 -49.571875 
L 343.798704 -49.571875 
L 342.695937 -49.571875 
L 341.593171 -49.571875 
L 340.490404 -49.571875 
L 339.387637 -49.571875 
L 338.28487 -49.571875 
L 337.182104 -49.571875 
L 336.079337 -49.571875 
L 334.97657 -49.571875 
L 333.873803 -49.571875 
L 332.771036 -49.571875 
L 331.66827 -49.571875 
L 330.565503 -49.571875 
L 329.462736 -49.571875 
L 328.359969 -49.571875 
L 327.257202 -49.571875 
L 326.154436 -49.571875 
L 325.051669 -49.571875 
L 323.948902 -49.571875 
L 322.846135 -49.571875 
L 321.743368 -49.571875 
L 320.640602 -49.571875 
L 319.537835 -49.571875 
L 318.435068 -49.571875 
L 317.332301 -49.571875 
L 316.229534 -49.571875 
L 315.126768 -49.571875 
L 314.024001 -49.571875 
L 312.921234 -49.571875 
L 311.818467 -49.571875 
L 310.7157 -49.571875 
L 309.612934 -49.571875 
L 308.510167 -49.571875 
L 307.4074 -49.571875 
L 306.304633 -49.571875 
L 305.201866 -49.571875 
L 304.0991 -49.571875 
L 302.996333 -49.571875 
L 301.893566 -49.571875 
L 300.790799 -49.571875 
L 299.688032 -49.571875 
L 298.585266 -49.571875 
L 297.482499 -49.571875 
L 296.379732 -49.571875 
L 295.276965 -49.571875 
L 294.174198 -49.571875 
L 293.071432 -49.571875 
L 291.968665 -49.571875 
L 290.865898 -49.571875 
L 289.763131 -49.571875 
L 288.660364 -49.571875 
L 287.557598 -49.571875 
L 286.454831 -49.571875 
L 285.352064 -49.571875 
L 284.249297 -49.571875 
L 283.14653 -49.571875 
L 282.043764 -49.571875 
L 280.940997 -49.571875 
L 279.83823 -49.571875 
L 278.735463 -49.571875 
L 277.632696 -49.571875 
L 276.52993 -49.571875 
L 275.427163 -49.571875 
L 274.324396 -49.571875 
L 273.221629 -49.571875 
L 272.118862 -49.571875 
L 271.016096 -49.571875 
L 269.913329 -49.571875 
L 268.810562 -49.571875 
L 267.707795 -49.571875 
L 266.605028 -49.571875 
L 265.502262 -49.571875 
L 264.399495 -49.571875 
L 263.296728 -49.571875 
L 262.193961 -49.571875 
L 261.091194 -49.571875 
L 259.988428 -49.571875 
L 258.885661 -49.571875 
L 257.782894 -49.571875 
L 256.680127 -49.571875 
L 255.57736 -49.571875 
L 254.474594 -49.571875 
L 253.371827 -49.571875 
L 252.26906 -49.571875 
L 251.166293 -49.571875 
L 250.063526 -49.571875 
L 248.96076 -49.571875 
L 247.857993 -49.571875 
L 246.755226 -49.571875 
L 245.652459 -49.571875 
L 244.549692 -49.571875 
L 243.446926 -49.571875 
L 242.344159 -49.571875 
L 241.241392 -49.571875 
L 240.138625 -49.571875 
L 239.035858 -49.571875 
L 237.933092 -49.571875 
L 236.830325 -49.571875 
L 235.727558 -49.571875 
L 234.624791 -49.571875 
L 233.522024 -49.571875 
L 232.419258 -49.571875 
L 231.316491 -49.571875 
L 230.213724 -49.571875 
L 229.110957 -49.571875 
L 228.00819 -49.571875 
L 226.905424 -49.571875 
L 225.802657 -49.571875 
L 224.69989 -49.571875 
L 223.597123 -49.571875 
L 222.494356 -49.571875 
L 221.39159 -49.571875 
L 220.288823 -49.571875 
L 219.186056 -49.571875 
L 218.083289 -49.571875 
L 216.980522 -49.571875 
L 215.877756 -49.571875 
L 214.774989 -49.571875 
L 213.672222 -49.571875 
L 212.569455 -49.571875 
L 211.466688 -49.571875 
L 210.363922 -49.571875 
L 209.261155 -49.571875 
L 208.158388 -49.571875 
L 207.055621 -49.571875 
L 205.952854 -49.571875 
L 204.850088 -49.571875 
L 203.747321 -49.571875 
L 202.644554 -49.571875 
L 201.541787 -49.571875 
L 200.439021 -49.571875 
L 199.336254 -49.571875 
L 198.233487 -49.571875 
L 197.13072 -49.571875 
L 196.027953 -49.571875 
L 194.925187 -49.571875 
L 193.82242 -49.571875 
L 192.719653 -49.571875 
L 191.616886 -49.571875 
L 190.514119 -49.571875 
L 189.411353 -49.571875 
L 188.308586 -49.571875 
L 187.205819 -49.571875 
L 186.103052 -49.571875 
L 185.000285 -49.571875 
L 183.897519 -49.571875 
L 182.794752 -49.571875 
L 181.691985 -49.571875 
L 180.589218 -49.571875 
L 179.486451 -49.571875 
L 178.383685 -49.571875 
L 177.280918 -49.571875 
L 176.178151 -49.571875 
L 175.075384 -49.571875 
L 173.972617 -49.571875 
L 172.869851 -49.571875 
L 171.767084 -49.571875 
L 170.664317 -49.571875 
L 169.56155 -49.571875 
L 168.458783 -49.571875 
L 167.356017 -49.571875 
L 166.25325 -49.571875 
L 165.150483 -49.571875 
L 164.047716 -49.571875 
L 162.944949 -49.571875 
L 161.842183 -49.571875 
L 160.739416 -49.571875 
L 159.636649 -49.571875 
L 158.533882 -49.571875 
L 157.431115 -49.571875 
L 156.328349 -49.571875 
L 155.225582 -49.571875 
L 154.122815 -49.571875 
L 153.020048 -49.571875 
L 151.917281 -49.571875 
L 150.814515 -49.571875 
L 149.711748 -49.571875 
L 148.608981 -49.571875 
L 147.506214 -49.571875 
L 146.403447 -49.571875 
L 145.300681 -49.571875 
L 144.197914 -49.571875 
L 143.095147 -49.571875 
L 141.99238 -49.571875 
L 140.889613 -49.571875 
L 139.786847 -49.571875 
L 138.68408 -49.571875 
L 137.581313 -49.571875 
L 136.478546 -49.571875 
L 135.375779 -49.571875 
L 134.273013 -49.571875 
L 133.170246 -49.571875 
L 132.067479 -49.571875 
L 130.964712 -49.571875 
L 129.861945 -49.571875 
L 128.759179 -49.571875 
L 127.656412 -49.571875 
L 126.553645 -49.571875 
L 125.450878 -49.571875 
L 124.348111 -49.571875 
L 123.245345 -49.571875 
L 122.142578 -49.571875 
L 121.039811 -49.571875 
L 119.937044 -49.571875 
L 118.834277 -49.571875 
L 117.731511 -49.571875 
L 116.628744 -49.571875 
L 115.525977 -49.571875 
L 114.42321 -49.571875 
L 113.320443 -49.571875 
L 112.217677 -49.571875 
L 111.11491 -49.571875 
L 110.012143 -49.571875 
L 108.909376 -49.571875 
L 107.806609 -49.571875 
L 106.703843 -49.571875 
L 105.601076 -49.571875 
L 104.498309 -49.571875 
L 103.395542 -49.571875 
L 102.292775 -49.571875 
L 101.190009 -49.571875 
L 100.087242 -49.571875 
L 98.984475 -49.571875 
L 97.881708 -49.571875 
L 96.778941 -49.571875 
L 95.676175 -49.571875 
L 94.573408 -49.571875 
L 93.470641 -49.571875 
L 92.367874 -49.571875 
L 91.265107 -49.571875 
L 90.162341 -49.571875 
L 89.059574 -49.571875 
L 87.956807 -49.571875 
L 86.85404 -49.571875 
L 85.751273 -49.571875 
L 84.648507 -49.571875 
L 83.54574 -49.571875 
L 82.442973 -49.571875 
L 81.340206 -49.571875 
L 80.237439 -49.571875 
L 79.134673 -49.571875 
L 78.031906 -49.571875 
L 76.929139 -49.571875 
L 75.826372 -49.571875 
L 74.723605 -49.571875 
L 73.620839 -49.571875 
L 72.518072 -49.571875 
L 71.415305 -49.571875 
L 70.312538 -49.571875 
L 69.209771 -49.571875 
L 68.107005 -49.571875 
L 67.004238 -49.571875 
L 65.901471 -49.571875 
L 64.798704 -49.571875 
L 63.695937 -49.571875 
L 62.593171 -49.571875 
L 61.490404 -49.571875 
L 60.387637 -49.571875 
L 59.28487 -49.571875 
L 58.182104 -49.571875 
L 57.079337 -49.571875 
L 55.97657 -49.571875 
L 54.873803 -49.571875 
L 53.771036 -49.571875 
L 52.66827 -49.571875 
L 51.565503 -49.571875 
L 50.462736 -49.571875 
L 49.359969 -49.571875 
L 48.257202 -49.571875 
L 47.154436 -49.571875 
L 46.051669 -49.571875 
L 44.948902 -49.571875 
L 43.846135 -49.571875 
L 42.743368 -49.571875 
L 41.640602 -49.571875 
L 40.537835 -49.571875 
L 39.435068 -49.571875 
L 38.332301 -49.571875 
z
" style="stroke: #7a2a35; stroke-opacity: 0.12"/>
    </defs>
    <g clip-path="url(#pf78d6668e4)">
     <use xlink:href="#m2ea0c2b18a" x="0" y="268.451875" style="fill: #7a2a35; fill-opacity: 0.12; stroke: #7a2a35; stroke-opacity: 0.12"/>
    </g>
   </g>
   <g id="FillBetweenPolyCollection_2">
    <defs>
     <path id="mdcb313d678" d="M 38.332301 -49.571875 
L 38.332301 -49.571908 
L 39.435068 -49.571915 
L 40.537835 -49.571925 
L 41.640602 -49.571936 
L 42.743368 -49.57195 
L 43.846135 -49.571966 
L 44.948902 -49.571987 
L 46.051669 -49.572012 
L 47.154436 -49.572042 
L 48.257202 -49.572078 
L 49.359969 -49.572122 
L 50.462736 -49.572175 
L 51.565503 -49.572239 
L 52.66827 -49.572315 
L 53.771036 -49.572408 
L 54.873803 -49.572519 
L 55.97657 -49.572651 
L 57.079337 -49.57281 
L 58.182104 -49.573 
L 59.28487 -49.573226 
L 60.387637 -49.573495 
L 61.490404 -49.573816 
L 62.593171 -49.574196 
L 63.695937 -49.574648 
L 64.798704 -49.575182 
L 65.901471 -49.575814 
L 67.004238 -49.576561 
L 68.107005 -49.57744 
L 69.209771 -49.578476 
L 70.312538 -49.579694 
L 71.415305 -49.581123 
L 72.518072 -49.582799 
L 73.620839 -49.58476 
L 74.723605 -49.587051 
L 75.826372 -49.589726 
L 76.929139 -49.592842 
L 78.031906 -49.596467 
L 79.134673 -49.600679 
L 80.237439 -49.605566 
L 81.340206 -49.611226 
L 82.442973 -49.617773 
L 83.54574 -49.625335 
L 84.648507 -49.634055 
L 85.751273 -49.644096 
L 86.85404 -49.655642 
L 87.956807 -49.668898 
L 89.059574 -49.684094 
L 90.162341 -49.701489 
L 91.265107 -49.721371 
L 92.367874 -49.744062 
L 93.470641 -49.769919 
L 94.573408 -49.799341 
L 95.676175 -49.832768 
L 96.778941 -49.87069 
L 97.881708 -49.913645 
L 98.984475 -49.962229 
L 100.087242 -50.017095 
L 101.190009 -50.078963 
L 102.292775 -50.148621 
L 103.395542 -50.226931 
L 104.498309 -50.314833 
L 105.601076 -50.413353 
L 106.703843 -50.523604 
L 107.806609 -50.646796 
L 108.909376 -50.784236 
L 110.012143 -50.937338 
L 111.11491 -51.107624 
L 112.217677 -51.296731 
L 113.320443 -51.506416 
L 114.42321 -51.738557 
L 115.525977 -51.995163 
L 116.628744 -52.278369 
L 117.731511 -52.590448 
L 118.834277 -52.933804 
L 119.937044 -53.310981 
L 121.039811 -53.72466 
L 122.142578 -54.177658 
L 123.245345 -54.672929 
L 124.348111 -55.213558 
L 125.450878 -55.802762 
L 126.553645 -56.443879 
L 127.656412 -57.140366 
L 128.759179 -57.89579 
L 129.861945 -58.713813 
L 130.964712 -59.59819 
L 132.067479 -60.552745 
L 133.170246 -61.581365 
L 134.273013 -62.687976 
L 135.375779 -63.876528 
L 136.478546 -65.150972 
L 137.581313 -66.515237 
L 138.68408 -67.973208 
L 139.786847 -69.528696 
L 140.889613 -71.185411 
L 141.99238 -72.94693 
L 143.095147 -74.816671 
L 144.197914 -76.79785 
L 145.300681 -78.893458 
L 146.403447 -81.106216 
L 147.506214 -83.438544 
L 148.608981 -85.892522 
L 149.711748 -88.469856 
L 150.814515 -91.171835 
L 151.917281 -93.9993 
L 153.020048 -96.952606 
L 154.122815 -100.031585 
L 155.225582 -103.235514 
L 156.328349 -106.563083 
L 157.431115 -110.012366 
L 158.533882 -113.580793 
L 159.636649 -117.265125 
L 160.739416 -121.061435 
L 161.842183 -124.96509 
L 162.944949 -128.970737 
L 164.047716 -133.072297 
L 165.150483 -137.262959 
L 166.25325 -141.535183 
L 167.356017 -145.880706 
L 168.458783 -150.290553 
L 169.56155 -154.755055 
L 170.664317 -159.263876 
L 171.767084 -163.806036 
L 172.869851 -168.369952 
L 173.972617 -172.943477 
L 175.075384 -177.513946 
L 176.178151 -182.068229 
L 177.280918 -186.592788 
L 178.383685 -191.073739 
L 179.486451 -195.496923 
L 180.589218 -199.847972 
L 181.691985 -204.112387 
L 182.794752 -208.275617 
L 183.897519 -212.323136 
L 185.000285 -216.240532 
L 186.103052 -220.013587 
L 187.205819 -223.628364 
L 188.308586 -227.07129 
L 189.411353 -230.329244 
L 190.514119 -233.389638 
L 191.616886 -236.240495 
L 192.719653 -238.870534 
L 193.82242 -241.269237 
L 194.925187 -243.426922 
L 196.027953 -245.334809 
L 197.13072 -246.985079 
L 198.233487 -248.370926 
L 199.336254 -249.486605 
L 200.439021 -250.327472 
L 201.541787 -250.890013 
L 202.644554 -251.171875 
L 203.747321 -251.171875 
L 204.850088 -250.890013 
L 205.952854 -250.327472 
L 207.055621 -249.486605 
L 208.158388 -248.370926 
L 209.261155 -246.985079 
L 210.363922 -245.334809 
L 211.466688 -243.426922 
L 212.569455 -241.269237 
L 213.672222 -238.870534 
L 214.774989 -236.240495 
L 215.877756 -233.389638 
L 216.980522 -230.329244 
L 218.083289 -227.07129 
L 219.186056 -223.628364 
L 220.288823 -220.013587 
L 221.39159 -216.240532 
L 222.494356 -212.323136 
L 223.597123 -208.275617 
L 224.69989 -204.112387 
L 225.802657 -199.847972 
L 226.905424 -195.496923 
L 228.00819 -191.073739 
L 229.110957 -186.592788 
L 230.213724 -182.068229 
L 231.316491 -177.513946 
L 232.419258 -172.943477 
L 233.522024 -168.369952 
L 234.624791 -163.806036 
L 235.727558 -159.263876 
L 236.830325 -154.755055 
L 237.933092 -150.290553 
L 239.035858 -145.880706 
L 240.138625 -141.535183 
L 241.241392 -137.262959 
L 242.344159 -133.072297 
L 243.446926 -128.970737 
L 244.549692 -124.96509 
L 245.652459 -121.061435 
L 246.755226 -117.265125 
L 247.857993 -113.580793 
L 248.96076 -110.012366 
L 250.063526 -106.563083 
L 251.166293 -103.235514 
L 252.26906 -100.031585 
L 253.371827 -96.952606 
L 254.474594 -93.9993 
L 255.57736 -91.171835 
L 256.680127 -88.469856 
L 257.782894 -85.892522 
L 258.885661 -83.438544 
L 259.988428 -81.106216 
L 261.091194 -78.893458 
L 262.193961 -76.79785 
L 263.296728 -74.816671 
L 264.399495 -72.94693 
L 265.502262 -71.185411 
L 266.605028 -69.528696 
L 267.707795 -67.973208 
L 268.810562 -66.515237 
L 269.913329 -65.150972 
L 271.016096 -63.876528 
L 272.118862 -62.687976 
L 273.221629 -61.581365 
L 274.324396 -60.552745 
L 275.427163 -59.59819 
L 276.52993 -58.713813 
L 277.632696 -57.89579 
L 278.735463 -57.140366 
L 279.83823 -56.443879 
L 280.940997 -55.802762 
L 282.043764 -55.213558 
L 283.14653 -54.672929 
L 284.249297 -54.177658 
L 285.352064 -53.72466 
L 286.454831 -53.310981 
L 287.557598 -52.933804 
L 288.660364 -52.590448 
L 289.763131 -52.278369 
L 290.865898 -51.995163 
L 291.968665 -51.738557 
L 293.071432 -51.506416 
L 294.174198 -51.296731 
L 295.276965 -51.107624 
L 296.379732 -50.937338 
L 297.482499 -50.784236 
L 298.585266 -50.646796 
L 299.688032 -50.523604 
L 300.790799 -50.413353 
L 301.893566 -50.314833 
L 302.996333 -50.226931 
L 304.0991 -50.148621 
L 305.201866 -50.078963 
L 306.304633 -50.017095 
L 307.4074 -49.962229 
L 308.510167 -49.913645 
L 309.612934 -49.87069 
L 310.7157 -49.832768 
L 311.818467 -49.799341 
L 312.921234 -49.769919 
L 314.024001 -49.744062 
L 315.126768 -49.721371 
L 316.229534 -49.701489 
L 317.332301 -49.684094 
L 318.435068 -49.668898 
L 319.537835 -49.655642 
L 320.640602 -49.644096 
L 321.743368 -49.634055 
L 322.846135 -49.625335 
L 323.948902 -49.617773 
L 325.051669 -49.611226 
L 326.154436 -49.605566 
L 327.257202 -49.600679 
L 328.359969 -49.596467 
L 329.462736 -49.592842 
L 330.565503 -49.589726 
L 331.66827 -49.587051 
L 332.771036 -49.58476 
L 333.873803 -49.582799 
L 334.97657 -49.581123 
L 336.079337 -49.579694 
L 337.182104 -49.578476 
L 338.28487 -49.57744 
L 339.387637 -49.576561 
L 340.490404 -49.575814 
L 341.593171 -49.575182 
L 342.695937 -49.574648 
L 343.798704 -49.574196 
L 344.901471 -49.573816 
L 346.004238 -49.573495 
L 347.107005 -49.573226 
L 348.209771 -49.573 
L 349.312538 -49.57281 
L 350.415305 -49.572651 
L 351.518072 -49.572519 
L 352.620839 -49.572408 
L 353.723605 -49.572315 
L 354.826372 -49.572239 
L 355.929139 -49.572175 
L 357.031906 -49.572122 
L 358.134673 -49.572078 
L 359.237439 -49.572042 
L 360.340206 -49.572012 
L 361.442973 -49.571987 
L 362.54574 -49.571966 
L 363.648507 -49.57195 
L 364.751273 -49.571936 
L 365.85404 -49.571925 
L 366.956807 -49.571915 
L 368.059574 -49.571908 
L 368.059574 -49.571875 
L 368.059574 -49.571875 
L 366.956807 -49.571875 
L 365.85404 -49.571875 
L 364.751273 -49.571875 
L 363.648507 -49.571875 
L 362.54574 -49.571875 
L 361.442973 -49.571875 
L 360.340206 -49.571875 
L 359.237439 -49.571875 
L 358.134673 -49.571875 
L 357.031906 -49.571875 
L 355.929139 -49.571875 
L 354.826372 -49.571875 
L 353.723605 -49.571875 
L 352.620839 -49.571875 
L 351.518072 -49.571875 
L 350.415305 -49.571875 
L 349.312538 -49.571875 
L 348.209771 -49.571875 
L 347.107005 -49.571875 
L 346.004238 -49.571875 
L 344.901471 -49.571875 
L 343.798704 -49.571875 
L 342.695937 -49.571875 
L 341.593171 -49.571875 
L 340.490404 -49.571875 
L 339.387637 -49.571875 
L 338.28487 -49.571875 
L 337.182104 -49.571875 
L 336.079337 -49.571875 
L 334.97657 -49.571875 
L 333.873803 -49.571875 
L 332.771036 -49.571875 
L 331.66827 -49.571875 
L 330.565503 -49.571875 
L 329.462736 -49.571875 
L 328.359969 -49.571875 
L 327.257202 -49.571875 
L 326.154436 -49.571875 
L 325.051669 -49.571875 
L 323.948902 -49.571875 
L 322.846135 -49.571875 
L 321.743368 -49.571875 
L 320.640602 -49.571875 
L 319.537835 -49.571875 
L 318.435068 -49.571875 
L 317.332301 -49.571875 
L 316.229534 -49.571875 
L 315.126768 -49.571875 
L 314.024001 -49.571875 
L 312.921234 -49.571875 
L 311.818467 -49.571875 
L 310.7157 -49.571875 
L 309.612934 -49.571875 
L 308.510167 -49.571875 
L 307.4074 -49.571875 
L 306.304633 -49.571875 
L 305.201866 -49.571875 
L 304.0991 -49.571875 
L 302.996333 -49.571875 
L 301.893566 -49.571875 
L 300.790799 -49.571875 
L 299.688032 -49.571875 
L 298.585266 -49.571875 
L 297.482499 -49.571875 
L 296.379732 -49.571875 
L 295.276965 -49.571875 
L 294.174198 -49.571875 
L 293.071432 -49.571875 
L 291.968665 -49.571875 
L 290.865898 -49.571875 
L 289.763131 -49.571875 
L 288.660364 -49.571875 
L 287.557598 -49.571875 
L 286.454831 -49.571875 
L 285.352064 -49.571875 
L 284.249297 -49.571875 
L 283.14653 -49.571875 
L 282.043764 -49.571875 
L 280.940997 -49.571875 
L 279.83823 -49.571875 
L 278.735463 -49.571875 
L 277.632696 -49.571875 
L 276.52993 -49.571875 
L 275.427163 -49.571875 
L 274.324396 -49.571875 
L 273.221629 -49.571875 
L 272.118862 -49.571875 
L 271.016096 -49.571875 
L 269.913329 -49.571875 
L 268.810562 -49.571875 
L 267.707795 -49.571875 
L 266.605028 -49.571875 
L 265.502262 -49.571875 
L 264.399495 -49.571875 
L 263.296728 -49.571875 
L 262.193961 -49.571875 
L 261.091194 -49.571875 
L 259.988428 -49.571875 
L 258.885661 -49.571875 
L 257.782894 -49.571875 
L 256.680127 -49.571875 
L 255.57736 -49.571875 
L 254.474594 -49.571875 
L 253.371827 -49.571875 
L 252.26906 -49.571875 
L 251.166293 -49.571875 
L 250.063526 -49.571875 
L 248.96076 -49.571875 
L 247.857993 -49.571875 
L 246.755226 -49.571875 
L 245.652459 -49.571875 
L 244.549692 -49.571875 
L 243.446926 -49.571875 
L 242.344159 -49.571875 
L 241.241392 -49.571875 
L 240.138625 -49.571875 
L 239.035858 -49.571875 
L 237.933092 -49.571875 
L 236.830325 -49.571875 
L 235.727558 -49.571875 
L 234.624791 -49.571875 
L 233.522024 -49.571875 
L 232.419258 -49.571875 
L 231.316491 -49.571875 
L 230.213724 -49.571875 
L 229.110957 -49.571875 
L 228.00819 -49.571875 
L 226.905424 -49.571875 
L 225.802657 -49.571875 
L 224.69989 -49.571875 
L 223.597123 -49.571875 
L 222.494356 -49.571875 
L 221.39159 -49.571875 
L 220.288823 -49.571875 
L 219.186056 -49.571875 
L 218.083289 -49.571875 
L 216.980522 -49.571875 
L 215.877756 -49.571875 
L 214.774989 -49.571875 
L 213.672222 -49.571875 
L 212.569455 -49.571875 
L 211.466688 -49.571875 
L 210.363922 -49.571875 
L 209.261155 -49.571875 
L 208.158388 -49.571875 
L 207.055621 -49.571875 
L 205.952854 -49.571875 
L 204.850088 -49.571875 
L 203.747321 -49.571875 
L 202.644554 -49.571875 
L 201.541787 -49.571875 
L 200.439021 -49.571875 
L 199.336254 -49.571875 
L 198.233487 -49.571875 
L 197.13072 -49.571875 
L 196.027953 -49.571875 
L 194.925187 -49.571875 
L 193.82242 -49.571875 
L 192.719653 -49.571875 
L 191.616886 -49.571875 
L 190.514119 -49.571875 
L 189.411353 -49.571875 
L 188.308586 -49.571875 
L 187.205819 -49.571875 
L 186.103052 -49.571875 
L 185.000285 -49.571875 
L 183.897519 -49.571875 
L 182.794752 -49.571875 
L 181.691985 -49.571875 
L 180.589218 -49.571875 
L 179.486451 -49.571875 
L 178.383685 -49.571875 
L 177.280918 -49.571875 
L 176.178151 -49.571875 
L 175.075384 -49.571875 
L 173.972617 -49.571875 
L 172.869851 -49.571875 
L 171.767084 -49.571875 
L 170.664317 -49.571875 
L 169.56155 -49.571875 
L 168.458783 -49.571875 
L 167.356017 -49.571875 
L 166.25325 -49.571875 
L 165.150483 -49.571875 
L 164.047716 -49.571875 
L 162.944949 -49.571875 
L 161.842183 -49.571875 
L 160.739416 -49.571875 
L 159.636649 -49.571875 
L 158.533882 -49.571875 
L 157.431115 -49.571875 
L 156.328349 -49.571875 
L 155.225582 -49.571875 
L 154.122815 -49.571875 
L 153.020048 -49.571875 
L 151.917281 -49.571875 
L 150.814515 -49.571875 
L 149.711748 -49.571875 
L 148.608981 -49.571875 
L 147.506214 -49.571875 
L 146.403447 -49.571875 
L 145.300681 -49.571875 
L 144.197914 -49.571875 
L 143.095147 -49.571875 
L 141.99238 -49.571875 
L 140.889613 -49.571875 
L 139.786847 -49.571875 
L 138.68408 -49.571875 
L 137.581313 -49.571875 
L 136.478546 -49.571875 
L 135.375779 -49.571875 
L 134.273013 -49.571875 
L 133.170246 -49.571875 
L 132.067479 -49.571875 
L 130.964712 -49.571875 
L 129.861945 -49.571875 
L 128.759179 -49.571875 
L 127.656412 -49.571875 
L 126.553645 -49.571875 
L 125.450878 -49.571875 
L 124.348111 -49.571875 
L 123.245345 -49.571875 
L 122.142578 -49.571875 
L 121.039811 -49.571875 
L 119.937044 -49.571875 
L 118.834277 -49.571875 
L 117.731511 -49.571875 
L 116.628744 -49.571875 
L 115.525977 -49.571875 
L 114.42321 -49.571875 
L 113.320443 -49.571875 
L 112.217677 -49.571875 
L 111.11491 -49.571875 
L 110.012143 -49.571875 
L 108.909376 -49.571875 
L 107.806609 -49.571875 
L 106.703843 -49.571875 
L 105.601076 -49.571875 
L 104.498309 -49.571875 
L 103.395542 -49.571875 
L 102.292775 -49.571875 
L 101.190009 -49.571875 
L 100.087242 -49.571875 
L 98.984475 -49.571875 
L 97.881708 -49.571875 
L 96.778941 -49.571875 
L 95.676175 -49.571875 
L 94.573408 -49.571875 
L 93.470641 -49.571875 
L 92.367874 -49.571875 
L 91.265107 -49.571875 
L 90.162341 -49.571875 
L 89.059574 -49.571875 
L 87.956807 -49.571875 
L 86.85404 -49.571875 
L 85.751273 -49.571875 
L 84.648507 -49.571875 
L 83.54574 -49.571875 
L 82.442973 -49.571875 
L 81.340206 -49.571875 
L 80.237439 -49.571875 
L 79.134673 -49.571875 
L 78.031906 -49.571875 
L 76.929139 -49.571875 
L 75.826372 -49.571875 
L 74.723605 -49.571875 
L 73.620839 -49.571875 
L 72.518072 -49.571875 
L 71.415305 -49.571875 
L 70.312538 -49.571875 
L 69.209771 -49.571875 
L 68.107005 -49.571875 
L 67.004238 -49.571875 
L 65.901471 -49.571875 
L 64.798704 -49.571875 
L 63.695937 -49.571875 
L 62.593171 -49.571875 
L 61.490404 -49.571875 
L 60.387637 -49.571875 
L 59.28487 -49.571875 
L 58.182104 -49.571875 
L 57.079337 -49.571875 
L 55.97657 -49.571875 
L 54.873803 -49.571875 
L 53.771036 -49.571875 
L 52.66827 -49.571875 
L 51.565503 -49.571875 
L 50.462736 -49.571875 
L 49.359969 -49.571875 
L 48.257202 -49.571875 
L 47.154436 -49.571875 
L 46.051669 -49.571875 
L 44.948902 -49.571875 
L 43.846135 -49.571875 
L 42.743368 -49.571875 
L 41.640602 -49.571875 
L 40.537835 -49.571875 
L 39.435068 -49.571875 
L 38.332301 -49.571875 
z
" style="stroke: #2c4a7a; stroke-opacity: 0.15"/>
    </defs>
    <g clip-path="url(#pf78d6668e4)">
     <use xlink:href="#mdcb313d678" x="0" y="268.451875" style="fill: #2c4a7a; fill-opacity: 0.15; stroke: #2c4a7a; stroke-opacity: 0.15"/>
    </g>
   </g>
   <g id="matplotlib.axis_1">
    <g id="xtick_1">
     <g id="line2d_1">
      <defs>
       <path id="mee1127813b" d="M 0 0 
L 0 3.5 
" style="stroke: #000000; stroke-width: 0.8"/>
      </defs>
      <g>
       <use xlink:href="#mee1127813b" x="47.83113" y="228.96" style="stroke: #000000; stroke-width: 0.8"/>
      </g>
     </g>
     <g id="text_1">
      <!-- 2.4 -->
      <g transform="translate(39.084412 244.318281) scale(0.11 -0.11)">
       <defs>
        <path id="DejaVuSans-32" d="M 1228 531 
L 3431 531 
L 3431 0 
L 469 0 
L 469 531 
Q 828 903 1448 1529 
Q 2069 2156 2228 2338 
Q 2531 2678 2651 2914 
Q 2772 3150 2772 3378 
Q 2772 3750 2511 3984 
Q 2250 4219 1831 4219 
Q 1534 4219 1204 4116 
Q 875 4013 500 3803 
L 500 4441 
Q 881 4594 1212 4672 
Q 1544 4750 1819 4750 
Q 2544 4750 2975 4387 
Q 3406 4025 3406 3419 
Q 3406 3131 3298 2873 
Q 3191 2616 2906 2266 
Q 2828 2175 2409 1742 
Q 1991 1309 1228 531 
z
" transform="scale(0.015625)"/>
        <path id="DejaVuSans-2e" d="M 684 794 
L 1344 794 
L 1344 0 
L 684 0 
L 684 794 
z
" transform="scale(0.015625)"/>
        <path id="DejaVuSans-34" d="M 2419 4116 
L 825 1625 
L 2419 1625 
L 2419 4116 
z
M 2253 4666 
L 3047 4666 
L 3047 1625 
L 3713 1625 
L 3713 1100 
L 3047 1100 
L 3047 0 
L 2419 0 
L 2419 1100 
L 313 1100 
L 313 1709 
L 2253 4666 
z
" transform="scale(0.015625)"/>
       </defs>
       <use xlink:href="#DejaVuSans-32"/>
       <use xlink:href="#DejaVuSans-2e" transform="translate(63.623047 0)"/>
       <use xlink:href="#DejaVuSans-34" transform="translate(95.410156 0)"/>
      </g>
     </g>
    </g>
    <g id="xtick_2">
     <g id="line2d_2">
      <g>
       <use xlink:href="#mee1127813b" x="97.216287" y="228.96" style="stroke: #000000; stroke-width: 0.8"/>
      </g>
     </g>
     <g id="text_2">
      <!-- 2.6 -->
      <g transform="translate(88.469568 244.318281) scale(0.11 -0.11)">
       <defs>
        <path id="DejaVuSans-36" d="M 2113 2584 
Q 1688 2584 1439 2293 
Q 1191 2003 1191 1497 
Q 1191 994 1439 701 
Q 1688 409 2113 409 
Q 2538 409 2786 701 
Q 3034 994 3034 1497 
Q 3034 2003 2786 2293 
Q 2538 2584 2113 2584 
z
M 3366 4563 
L 3366 3988 
Q 3128 4100 2886 4159 
Q 2644 4219 2406 4219 
Q 1781 4219 1451 3797 
Q 1122 3375 1075 2522 
Q 1259 2794 1537 2939 
Q 1816 3084 2150 3084 
Q 2853 3084 3261 2657 
Q 3669 2231 3669 1497 
Q 3669 778 3244 343 
Q 2819 -91 2113 -91 
Q 1303 -91 875 529 
Q 447 1150 447 2328 
Q 447 3434 972 4092 
Q 1497 4750 2381 4750 
Q 2619 4750 2861 4703 
Q 3103 4656 3366 4563 
z
" transform="scale(0.015625)"/>
       </defs>
       <use xlink:href="#DejaVuSans-32"/>
       <use xlink:href="#DejaVuSans-2e" transform="translate(63.623047 0)"/>
       <use xlink:href="#DejaVuSans-36" transform="translate(95.410156 0)"/>
      </g>
     </g>
    </g>
    <g id="xtick_3">
     <g id="line2d_3">
      <g>
       <use xlink:href="#mee1127813b" x="146.601444" y="228.96" style="stroke: #000000; stroke-width: 0.8"/>
      </g>
     </g>
     <g id="text_3">
      <!-- 2.8 -->
      <g transform="translate(137.854725 244.318281) scale(0.11 -0.11)">
       <defs>
        <path id="DejaVuSans-38" d="M 2034 2216 
Q 1584 2216 1326 1975 
Q 1069 1734 1069 1313 
Q 1069 891 1326 650 
Q 1584 409 2034 409 
Q 2484 409 2743 651 
Q 3003 894 3003 1313 
Q 3003 1734 2745 1975 
Q 2488 2216 2034 2216 
z
M 1403 2484 
Q 997 2584 770 2862 
Q 544 3141 544 3541 
Q 544 4100 942 4425 
Q 1341 4750 2034 4750 
Q 2731 4750 3128 4425 
Q 3525 4100 3525 3541 
Q 3525 3141 3298 2862 
Q 3072 2584 2669 2484 
Q 3125 2378 3379 2068 
Q 3634 1759 3634 1313 
Q 3634 634 3220 271 
Q 2806 -91 2034 -91 
Q 1263 -91 848 271 
Q 434 634 434 1313 
Q 434 1759 690 2068 
Q 947 2378 1403 2484 
z
M 1172 3481 
Q 1172 3119 1398 2916 
Q 1625 2713 2034 2713 
Q 2441 2713 2670 2916 
Q 2900 3119 2900 3481 
Q 2900 3844 2670 4047 
Q 2441 4250 2034 4250 
Q 1625 4250 1398 4047 
Q 1172 3844 1172 3481 
z
" transform="scale(0.015625)"/>
       </defs>
       <use xlink:href="#DejaVuSans-32"/>
       <use xlink:href="#DejaVuSans-2e" transform="translate(63.623047 0)"/>
       <use xlink:href="#DejaVuSans-38" transform="translate(95.410156 0)"/>
      </g>
     </g>
    </g>
    <g id="xtick_4">
     <g id="line2d_4">
      <g>
       <use xlink:href="#mee1127813b" x="195.9866" y="228.96" style="stroke: #000000; stroke-width: 0.8"/>
      </g>
     </g>
     <g id="text_4">
      <!-- 3.0 -->
      <g transform="translate(187.239881 244.318281) scale(0.11 -0.11)">
       <defs>
        <path id="DejaVuSans-33" d="M 2597 2516 
Q 3050 2419 3304 2112 
Q 3559 1806 3559 1356 
Q 3559 666 3084 287 
Q 2609 -91 1734 -91 
Q 1441 -91 1130 -33 
Q 819 25 488 141 
L 488 750 
Q 750 597 1062 519 
Q 1375 441 1716 441 
Q 2309 441 2620 675 
Q 2931 909 2931 1356 
Q 2931 1769 2642 2001 
Q 2353 2234 1838 2234 
L 1294 2234 
L 1294 2753 
L 1863 2753 
Q 2328 2753 2575 2939 
Q 2822 3125 2822 3475 
Q 2822 3834 2567 4026 
Q 2313 4219 1838 4219 
Q 1578 4219 1281 4162 
Q 984 4106 628 3988 
L 628 4550 
Q 988 4650 1302 4700 
Q 1616 4750 1894 4750 
Q 2613 4750 3031 4423 
Q 3450 4097 3450 3541 
Q 3450 3153 3228 2886 
Q 3006 2619 2597 2516 
z
" transform="scale(0.015625)"/>
        <path id="DejaVuSans-30" d="M 2034 4250 
Q 1547 4250 1301 3770 
Q 1056 3291 1056 2328 
Q 1056 1369 1301 889 
Q 1547 409 2034 409 
Q 2525 409 2770 889 
Q 3016 1369 3016 2328 
Q 3016 3291 2770 3770 
Q 2525 4250 2034 4250 
z
M 2034 4750 
Q 2819 4750 3233 4129 
Q 3647 3509 3647 2328 
Q 3647 1150 3233 529 
Q 2819 -91 2034 -91 
Q 1250 -91 836 529 
Q 422 1150 422 2328 
Q 422 3509 836 4129 
Q 1250 4750 2034 4750 
z
" transform="scale(0.015625)"/>
       </defs>
       <use xlink:href="#DejaVuSans-33"/>
       <use xlink:href="#DejaVuSans-2e" transform="translate(63.623047 0)"/>
       <use xlink:href="#DejaVuSans-30" transform="translate(95.410156 0)"/>
      </g>
     </g>
    </g>
    <g id="xtick_5">
     <g id="line2d_5">
      <g>
       <use xlink:href="#mee1127813b" x="245.371757" y="228.96" style="stroke: #000000; stroke-width: 0.8"/>
      </g>
     </g>
     <g id="text_5">
      <!-- 3.2 -->
      <g transform="translate(236.625038 244.318281) scale(0.11 -0.11)">
       <use xlink:href="#DejaVuSans-33"/>
       <use xlink:href="#DejaVuSans-2e" transform="translate(63.623047 0)"/>
       <use xlink:href="#DejaVuSans-32" transform="translate(95.410156 0)"/>
      </g>
     </g>
    </g>
    <g id="xtick_6">
     <g id="line2d_6">
      <g>
       <use xlink:href="#mee1127813b" x="294.756913" y="228.96" style="stroke: #000000; stroke-width: 0.8"/>
      </g>
     </g>
     <g id="text_6">
      <!-- 3.4 -->
      <g transform="translate(286.010195 244.318281) scale(0.11 -0.11)">
       <use xlink:href="#DejaVuSans-33"/>
       <use xlink:href="#DejaVuSans-2e" transform="translate(63.623047 0)"/>
       <use xlink:href="#DejaVuSans-34" transform="translate(95.410156 0)"/>
      </g>
     </g>
    </g>
    <g id="xtick_7">
     <g id="line2d_7">
      <g>
       <use xlink:href="#mee1127813b" x="344.14207" y="228.96" style="stroke: #000000; stroke-width: 0.8"/>
      </g>
     </g>
     <g id="text_7">
      <!-- 3.6 -->
      <g transform="translate(335.395351 244.318281) scale(0.11 -0.11)">
       <use xlink:href="#DejaVuSans-33"/>
       <use xlink:href="#DejaVuSans-2e" transform="translate(63.623047 0)"/>
       <use xlink:href="#DejaVuSans-36" transform="translate(95.410156 0)"/>
      </g>
     </g>
    </g>
    <g id="text_8">
     <!-- Treatment effect (percentage points) -->
     <g transform="translate(101.658203 258.964219) scale(0.11 -0.11)">
      <defs>
       <path id="DejaVuSans-54" d="M -19 4666 
L 3928 4666 
L 3928 4134 
L 2272 4134 
L 2272 0 
L 1638 0 
L 1638 4134 
L -19 4134 
L -19 4666 
z
" transform="scale(0.015625)"/>
       <path id="DejaVuSans-72" d="M 2631 2963 
Q 2534 3019 2420 3045 
Q 2306 3072 2169 3072 
Q 1681 3072 1420 2755 
Q 1159 2438 1159 1844 
L 1159 0 
L 581 0 
L 581 3500 
L 1159 3500 
L 1159 2956 
Q 1341 3275 1631 3429 
Q 1922 3584 2338 3584 
Q 2397 3584 2469 3576 
Q 2541 3569 2628 3553 
L 2631 2963 
z
" transform="scale(0.015625)"/>
       <path id="DejaVuSans-65" d="M 3597 1894 
L 3597 1613 
L 953 1613 
Q 991 1019 1311 708 
Q 1631 397 2203 397 
Q 2534 397 2845 478 
Q 3156 559 3463 722 
L 3463 178 
Q 3153 47 2828 -22 
Q 2503 -91 2169 -91 
Q 1331 -91 842 396 
Q 353 884 353 1716 
Q 353 2575 817 3079 
Q 1281 3584 2069 3584 
Q 2775 3584 3186 3129 
Q 3597 2675 3597 1894 
z
M 3022 2063 
Q 3016 2534 2758 2815 
Q 2500 3097 2075 3097 
Q 1594 3097 1305 2825 
Q 1016 2553 972 2059 
L 3022 2063 
z
" transform="scale(0.015625)"/>
       <path id="DejaVuSans-61" d="M 2194 1759 
Q 1497 1759 1228 1600 
Q 959 1441 959 1056 
Q 959 750 1161 570 
Q 1363 391 1709 391 
Q 2188 391 2477 730 
Q 2766 1069 2766 1631 
L 2766 1759 
L 2194 1759 
z
M 3341 1997 
L 3341 0 
L 2766 0 
L 2766 531 
Q 2569 213 2275 61 
Q 1981 -91 1556 -91 
Q 1019 -91 701 211 
Q 384 513 384 1019 
Q 384 1609 779 1909 
Q 1175 2209 1959 2209 
L 2766 2209 
L 2766 2266 
Q 2766 2663 2505 2880 
Q 2244 3097 1772 3097 
Q 1472 3097 1187 3025 
Q 903 2953 641 2809 
L 641 3341 
Q 956 3463 1253 3523 
Q 1550 3584 1831 3584 
Q 2591 3584 2966 3190 
Q 3341 2797 3341 1997 
z
" transform="scale(0.015625)"/>
       <path id="DejaVuSans-74" d="M 1172 4494 
L 1172 3500 
L 2356 3500 
L 2356 3053 
L 1172 3053 
L 1172 1153 
Q 1172 725 1289 603 
Q 1406 481 1766 481 
L 2356 481 
L 2356 0 
L 1766 0 
Q 1100 0 847 248 
Q 594 497 594 1153 
L 594 3053 
L 172 3053 
L 172 3500 
L 594 3500 
L 594 4494 
L 1172 4494 
z
" transform="scale(0.015625)"/>
       <path id="DejaVuSans-6d" d="M 3328 2828 
Q 3544 3216 3844 3400 
Q 4144 3584 4550 3584 
Q 5097 3584 5394 3201 
Q 5691 2819 5691 2113 
L 5691 0 
L 5113 0 
L 5113 2094 
Q 5113 2597 4934 2840 
Q 4756 3084 4391 3084 
Q 3944 3084 3684 2787 
Q 3425 2491 3425 1978 
L 3425 0 
L 2847 0 
L 2847 2094 
Q 2847 2600 2669 2842 
Q 2491 3084 2119 3084 
Q 1678 3084 1418 2786 
Q 1159 2488 1159 1978 
L 1159 0 
L 581 0 
L 581 3500 
L 1159 3500 
L 1159 2956 
Q 1356 3278 1631 3431 
Q 1906 3584 2284 3584 
Q 2666 3584 2933 3390 
Q 3200 3197 3328 2828 
z
" transform="scale(0.015625)"/>
       <path id="DejaVuSans-6e" d="M 3513 2113 
L 3513 0 
L 2938 0 
L 2938 2094 
Q 2938 2591 2744 2837 
Q 2550 3084 2163 3084 
Q 1697 3084 1428 2787 
Q 1159 2491 1159 1978 
L 1159 0 
L 581 0 
L 581 3500 
L 1159 3500 
L 1159 2956 
Q 1366 3272 1645 3428 
Q 1925 3584 2291 3584 
Q 2894 3584 3203 3211 
Q 3513 2838 3513 2113 
z
" transform="scale(0.015625)"/>
       <path id="DejaVuSans-20" transform="scale(0.015625)"/>
       <path id="DejaVuSans-66" d="M 2375 4863 
L 2375 4384 
L 1825 4384 
Q 1516 4384 1395 4259 
Q 1275 4134 1275 3809 
L 1275 3500 
L 2222 3500 
L 2222 3053 
L 1275 3053 
L 1275 0 
L 697 0 
L 697 3053 
L 147 3053 
L 147 3500 
L 697 3500 
L 697 3744 
Q 697 4328 969 4595 
Q 1241 4863 1831 4863 
L 2375 4863 
z
" transform="scale(0.015625)"/>
       <path id="DejaVuSans-63" d="M 3122 3366 
L 3122 2828 
Q 2878 2963 2633 3030 
Q 2388 3097 2138 3097 
Q 1578 3097 1268 2742 
Q 959 2388 959 1747 
Q 959 1106 1268 751 
Q 1578 397 2138 397 
Q 2388 397 2633 464 
Q 2878 531 3122 666 
L 3122 134 
Q 2881 22 2623 -34 
Q 2366 -91 2075 -91 
Q 1284 -91 818 406 
Q 353 903 353 1747 
Q 353 2603 823 3093 
Q 1294 3584 2113 3584 
Q 2378 3584 2631 3529 
Q 2884 3475 3122 3366 
z
" transform="scale(0.015625)"/>
       <path id="DejaVuSans-28" d="M 1984 4856 
Q 1566 4138 1362 3434 
Q 1159 2731 1159 2009 
Q 1159 1288 1364 580 
Q 1569 -128 1984 -844 
L 1484 -844 
Q 1016 -109 783 600 
Q 550 1309 550 2009 
Q 550 2706 781 3412 
Q 1013 4119 1484 4856 
L 1984 4856 
z
" transform="scale(0.015625)"/>
       <path id="DejaVuSans-70" d="M 1159 525 
L 1159 -1331 
L 581 -1331 
L 581 3500 
L 1159 3500 
L 1159 2969 
Q 1341 3281 1617 3432 
Q 1894 3584 2278 3584 
Q 2916 3584 3314 3078 
Q 3713 2572 3713 1747 
Q 3713 922 3314 415 
Q 2916 -91 2278 -91 
Q 1894 -91 1617 61 
Q 1341 213 1159 525 
z
M 3116 1747 
Q 3116 2381 2855 2742 
Q 2594 3103 2138 3103 
Q 1681 3103 1420 2742 
Q 1159 2381 1159 1747 
Q 1159 1113 1420 752 
Q 1681 391 2138 391 
Q 2594 391 2855 752 
Q 3116 1113 3116 1747 
z
" transform="scale(0.015625)"/>
       <path id="DejaVuSans-67" d="M 2906 1791 
Q 2906 2416 2648 2759 
Q 2391 3103 1925 3103 
Q 1463 3103 1205 2759 
Q 947 2416 947 1791 
Q 947 1169 1205 825 
Q 1463 481 1925 481 
Q 2391 481 2648 825 
Q 2906 1169 2906 1791 
z
M 3481 434 
Q 3481 -459 3084 -895 
Q 2688 -1331 1869 -1331 
Q 1566 -1331 1297 -1286 
Q 1028 -1241 775 -1147 
L 775 -588 
Q 1028 -725 1275 -790 
Q 1522 -856 1778 -856 
Q 2344 -856 2625 -561 
Q 2906 -266 2906 331 
L 2906 616 
Q 2728 306 2450 153 
Q 2172 0 1784 0 
Q 1141 0 747 490 
Q 353 981 353 1791 
Q 353 2603 747 3093 
Q 1141 3584 1784 3584 
Q 2172 3584 2450 3431 
Q 2728 3278 2906 2969 
L 2906 3500 
L 3481 3500 
L 3481 434 
z
" transform="scale(0.015625)"/>
       <path id="DejaVuSans-6f" d="M 1959 3097 
Q 1497 3097 1228 2736 
Q 959 2375 959 1747 
Q 959 1119 1226 758 
Q 1494 397 1959 397 
Q 2419 397 2687 759 
Q 2956 1122 2956 1747 
Q 2956 2369 2687 2733 
Q 2419 3097 1959 3097 
z
M 1959 3584 
Q 2709 3584 3137 3096 
Q 3566 2609 3566 1747 
Q 3566 888 3137 398 
Q 2709 -91 1959 -91 
Q 1206 -91 779 398 
Q 353 888 353 1747 
Q 353 2609 779 3096 
Q 1206 3584 1959 3584 
z
" transform="scale(0.015625)"/>
       <path id="DejaVuSans-69" d="M 603 3500 
L 1178 3500 
L 1178 0 
L 603 0 
L 603 3500 
z
M 603 4863 
L 1178 4863 
L 1178 4134 
L 603 4134 
L 603 4863 
z
" transform="scale(0.015625)"/>
       <path id="DejaVuSans-73" d="M 2834 3397 
L 2834 2853 
Q 2591 2978 2328 3040 
Q 2066 3103 1784 3103 
Q 1356 3103 1142 2972 
Q 928 2841 928 2578 
Q 928 2378 1081 2264 
Q 1234 2150 1697 2047 
L 1894 2003 
Q 2506 1872 2764 1633 
Q 3022 1394 3022 966 
Q 3022 478 2636 193 
Q 2250 -91 1575 -91 
Q 1294 -91 989 -36 
Q 684 19 347 128 
L 347 722 
Q 666 556 975 473 
Q 1284 391 1588 391 
Q 1994 391 2212 530 
Q 2431 669 2431 922 
Q 2431 1156 2273 1281 
Q 2116 1406 1581 1522 
L 1381 1569 
Q 847 1681 609 1914 
Q 372 2147 372 2553 
Q 372 3047 722 3315 
Q 1072 3584 1716 3584 
Q 2034 3584 2315 3537 
Q 2597 3491 2834 3397 
z
" transform="scale(0.015625)"/>
       <path id="DejaVuSans-29" d="M 513 4856 
L 1013 4856 
Q 1481 4119 1714 3412 
Q 1947 2706 1947 2009 
Q 1947 1309 1714 600 
Q 1481 -109 1013 -844 
L 513 -844 
Q 928 -128 1133 580 
Q 1338 1288 1338 2009 
Q 1338 2731 1133 3434 
Q 928 4138 513 4856 
z
" transform="scale(0.015625)"/>
      </defs>
      <use xlink:href="#DejaVuSans-54"/>
      <use xlink:href="#DejaVuSans-72" transform="translate(46.333984 0)"/>
      <use xlink:href="#DejaVuSans-65" transform="translate(85.197266 0)"/>
      <use xlink:href="#DejaVuSans-61" transform="translate(146.720703 0)"/>
      <use xlink:href="#DejaVuSans-74" transform="translate(208 0)"/>
      <use xlink:href="#DejaVuSans-6d" transform="translate(247.208984 0)"/>
      <use xlink:href="#DejaVuSans-65" transform="translate(344.621094 0)"/>
      <use xlink:href="#DejaVuSans-6e" transform="translate(406.144531 0)"/>
      <use xlink:href="#DejaVuSans-74" transform="translate(469.523438 0)"/>
      <use xlink:href="#DejaVuSans-20" transform="translate(508.732422 0)"/>
      <use xlink:href="#DejaVuSans-65" transform="translate(540.519531 0)"/>
      <use xlink:href="#DejaVuSans-66" transform="translate(602.042969 0)"/>
      <use xlink:href="#DejaVuSans-66" transform="translate(637.248047 0)"/>
      <use xlink:href="#DejaVuSans-65" transform="translate(672.453125 0)"/>
      <use xlink:href="#DejaVuSans-63" transform="translate(733.976562 0)"/>
      <use xlink:href="#DejaVuSans-74" transform="translate(788.957031 0)"/>
      <use xlink:href="#DejaVuSans-20" transform="translate(828.166016 0)"/>
      <use xlink:href="#DejaVuSans-28" transform="translate(859.953125 0)"/>
      <use xlink:href="#DejaVuSans-70" transform="translate(898.966797 0)"/>
      <use xlink:href="#DejaVuSans-65" transform="translate(962.443359 0)"/>
      <use xlink:href="#DejaVuSans-72" transform="translate(1023.966797 0)"/>
      <use xlink:href="#DejaVuSans-63" transform="translate(1062.830078 0)"/>
      <use xlink:href="#DejaVuSans-65" transform="translate(1117.810547 0)"/>
      <use xlink:href="#DejaVuSans-6e" transform="translate(1179.333984 0)"/>
      <use xlink:href="#DejaVuSans-74" transform="translate(1242.712891 0)"/>
      <use xlink:href="#DejaVuSans-61" transform="translate(1281.921875 0)"/>
      <use xlink:href="#DejaVuSans-67" transform="translate(1343.201172 0)"/>
      <use xlink:href="#DejaVuSans-65" transform="translate(1406.677734 0)"/>
      <use xlink:href="#DejaVuSans-20" transform="translate(1468.201172 0)"/>
      <use xlink:href="#DejaVuSans-70" transform="translate(1499.988281 0)"/>
      <use xlink:href="#DejaVuSans-6f" transform="translate(1563.464844 0)"/>
      <use xlink:href="#DejaVuSans-69" transform="translate(1624.646484 0)"/>
      <use xlink:href="#DejaVuSans-6e" transform="translate(1652.429688 0)"/>
      <use xlink:href="#DejaVuSans-74" transform="translate(1715.808594 0)"/>
      <use xlink:href="#DejaVuSans-73" transform="translate(1755.017578 0)"/>
      <use xlink:href="#DejaVuSans-29" transform="translate(1807.117188 0)"/>
     </g>
    </g>
   </g>
   <g id="matplotlib.axis_2">
    <g id="text_9">
     <!-- Density -->
     <g transform="translate(15.558281 138.989453) rotate(-90) scale(0.11 -0.11)">
      <defs>
       <path id="DejaVuSans-44" d="M 1259 4147 
L 1259 519 
L 2022 519 
Q 2988 519 3436 956 
Q 3884 1394 3884 2338 
Q 3884 3275 3436 3711 
Q 2988 4147 2022 4147 
L 1259 4147 
z
M 628 4666 
L 1925 4666 
Q 3281 4666 3915 4102 
Q 4550 3538 4550 2338 
Q 4550 1131 3912 565 
Q 3275 0 1925 0 
L 628 0 
L 628 4666 
z
" transform="scale(0.015625)"/>
       <path id="DejaVuSans-79" d="M 2059 -325 
Q 1816 -950 1584 -1140 
Q 1353 -1331 966 -1331 
L 506 -1331 
L 506 -850 
L 844 -850 
Q 1081 -850 1212 -737 
Q 1344 -625 1503 -206 
L 1606 56 
L 191 3500 
L 800 3500 
L 1894 763 
L 2988 3500 
L 3597 3500 
L 2059 -325 
z
" transform="scale(0.015625)"/>
      </defs>
      <use xlink:href="#DejaVuSans-44"/>
      <use xlink:href="#DejaVuSans-65" transform="translate(77.001953 0)"/>
      <use xlink:href="#DejaVuSans-6e" transform="translate(138.525391 0)"/>
      <use xlink:href="#DejaVuSans-73" transform="translate(201.904297 0)"/>
      <use xlink:href="#DejaVuSans-69" transform="translate(254.003906 0)"/>
      <use xlink:href="#DejaVuSans-74" transform="translate(281.787109 0)"/>
      <use xlink:href="#DejaVuSans-79" transform="translate(320.996094 0)"/>
     </g>
    </g>
   </g>
   <g id="line2d_8">
    <path d="M 38.332301 218.831616 
L 55.97657 218.635328 
L 65.901471 218.318254 
L 73.620839 217.849915 
L 79.134673 217.325319 
L 84.648507 216.575182 
L 89.059574 215.762282 
L 93.470641 214.710705 
L 96.778941 213.734027 
L 100.087242 212.569348 
L 103.395542 211.19077 
L 106.703843 209.571207 
L 110.012143 207.682894 
L 113.320443 205.498028 
L 116.628744 202.989546 
L 119.937044 200.132023 
L 123.245345 196.902697 
L 126.553645 193.282575 
L 129.861945 189.257613 
L 133.170246 184.819916 
L 136.478546 179.968921 
L 139.786847 174.71251 
L 143.095147 169.06799 
L 146.403447 163.062896 
L 150.814515 154.563016 
L 156.328349 143.322364 
L 172.869851 108.852485 
L 176.178151 102.533969 
L 179.486451 96.642705 
L 182.794752 91.277912 
L 185.000285 88.040369 
L 187.205819 85.104298 
L 189.411353 82.493445 
L 191.616886 80.229232 
L 193.82242 78.33047 
L 196.027953 76.813098 
L 198.233487 75.689957 
L 200.439021 74.970612 
L 202.644554 74.661217 
L 204.850088 74.764422 
L 207.055621 75.279345 
L 209.261155 76.201572 
L 211.466688 77.523233 
L 213.672222 79.233103 
L 215.877756 81.316768 
L 218.083289 83.756822 
L 220.288823 86.533115 
L 222.494356 89.623022 
L 224.69989 93.001759 
L 228.00819 98.552772 
L 231.316491 104.597679 
L 235.727558 113.251781 
L 241.241392 124.683271 
L 253.371827 150.135264 
L 257.782894 158.877646 
L 262.193961 167.10469 
L 265.502262 172.872983 
L 268.810562 178.261178 
L 272.118862 183.248634 
L 275.427163 187.82443 
L 278.735463 191.986431 
L 282.043764 195.740218 
L 285.352064 199.097919 
L 288.660364 202.07701 
L 291.968665 204.699123 
L 295.276965 206.988915 
L 298.585266 208.973009 
L 301.893566 210.679055 
L 305.201866 212.134906 
L 308.510167 213.36794 
L 311.818467 214.404497 
L 316.229534 215.523709 
L 320.640602 216.391698 
L 325.051669 217.056221 
L 330.565503 217.662937 
L 337.182104 218.148419 
L 344.901471 218.488957 
L 355.929139 218.729626 
L 368.059574 218.831616 
L 368.059574 218.831616 
" clip-path="url(#pf78d6668e4)" style="fill: none; stroke: #7a2a35; stroke-width: 2; stroke-linecap: square"/>
   </g>
   <g id="line2d_9">
    <path d="M 38.332301 218.879967 
L 87.956807 218.782977 
L 97.881708 218.53823 
L 104.498309 218.137042 
L 108.909376 217.667639 
L 113.320443 216.945459 
L 116.628744 216.173506 
L 119.937044 215.140894 
L 122.142578 214.274217 
L 124.348111 213.238317 
L 126.553645 212.007996 
L 128.759179 210.556085 
L 130.964712 208.853685 
L 133.170246 206.87051 
L 135.375779 204.575347 
L 137.581313 201.936638 
L 139.786847 198.923179 
L 141.99238 195.504945 
L 144.197914 191.654025 
L 146.403447 187.345659 
L 148.608981 182.559353 
L 150.814515 177.28004 
L 153.020048 171.499269 
L 155.225582 165.216361 
L 157.431115 158.439509 
L 160.739416 147.39044 
L 164.047716 135.379578 
L 167.356017 122.571169 
L 172.869851 100.081923 
L 179.486451 72.954952 
L 182.794752 60.176258 
L 186.103052 48.438288 
L 188.308586 41.380585 
L 190.514119 35.062237 
L 192.719653 29.581341 
L 194.925187 25.024953 
L 196.027953 23.117066 
L 197.13072 21.466796 
L 198.233487 20.080949 
L 199.336254 18.96527 
L 200.439021 18.124403 
L 201.541787 17.561862 
L 202.644554 17.28 
L 203.747321 17.28 
L 204.850088 17.561862 
L 205.952854 18.124403 
L 207.055621 18.96527 
L 208.158388 20.080949 
L 209.261155 21.466796 
L 210.363922 23.117066 
L 211.466688 25.024953 
L 213.672222 29.581341 
L 215.877756 35.062237 
L 218.083289 41.380585 
L 220.288823 48.438288 
L 222.494356 56.128739 
L 225.802657 68.603903 
L 230.213724 86.383646 
L 240.138625 126.916692 
L 243.446926 139.481138 
L 246.755226 151.18675 
L 250.063526 161.888792 
L 252.26906 168.42029 
L 254.474594 174.452575 
L 256.680127 179.982019 
L 258.885661 185.013331 
L 261.091194 189.558417 
L 263.296728 193.635204 
L 265.502262 197.266464 
L 267.707795 200.478667 
L 269.913329 203.300903 
L 272.118862 205.763899 
L 274.324396 207.89913 
L 276.52993 209.738062 
L 278.735463 211.311509 
L 280.940997 212.649113 
L 283.14653 213.778946 
L 285.352064 214.727215 
L 288.660364 215.861427 
L 291.968665 216.713318 
L 295.276965 217.344251 
L 299.688032 217.928271 
L 305.201866 218.372912 
L 311.818467 218.652534 
L 321.743368 218.81782 
L 342.695937 218.877227 
L 368.059574 218.879967 
L 368.059574 218.879967 
" clip-path="url(#pf78d6668e4)" style="fill: none; stroke: #2c4a7a; stroke-width: 2.2; stroke-linecap: square"/>
   </g>
   <g id="line2d_10">
    <path d="M 203.195937 228.96 
L 203.195937 7.2 
" clip-path="url(#pf78d6668e4)" style="fill: none; stroke-dasharray: 3.33,1.44; stroke-dashoffset: 0; stroke: #333333; stroke-opacity: 0.5; stroke-width: 0.9"/>
   </g>
   <g id="patch_3">
    <path d="M 21.845937 228.96 
L 384.545937 228.96 
" style="fill: none; stroke: #9e9e9e; stroke-width: 0.8; stroke-linejoin: miter; stroke-linecap: square"/>
   </g>
   <g id="patch_4">
    <path d="M 283.627838 131.399058 
Q 265.017954 131.399058 247.861515 131.399058 
" style="fill: none; stroke: #7a2a35; stroke-width: 1.3; stroke-linecap: round"/>
    <path d="M 252.261515 133.599058 
L 247.861515 131.399058 
L 252.261515 129.199058 
" style="fill: none; stroke: #7a2a35; stroke-width: 1.3; stroke-linecap: round"/>
   </g>
   <g id="text_10">
    <!-- SE = 0.17 -->
    <g style="fill: #7a2a35" transform="translate(288.097014 133.882496) scale(0.09 -0.09)">
     <defs>
      <path id="DejaVuSans-Bold-53" d="M 3834 4519 
L 3834 3531 
Q 3450 3703 3084 3790 
Q 2719 3878 2394 3878 
Q 1963 3878 1756 3759 
Q 1550 3641 1550 3391 
Q 1550 3203 1689 3098 
Q 1828 2994 2194 2919 
L 2706 2816 
Q 3484 2659 3812 2340 
Q 4141 2022 4141 1434 
Q 4141 663 3683 286 
Q 3225 -91 2284 -91 
Q 1841 -91 1394 -6 
Q 947 78 500 244 
L 500 1259 
Q 947 1022 1364 901 
Q 1781 781 2169 781 
Q 2563 781 2772 912 
Q 2981 1044 2981 1288 
Q 2981 1506 2839 1625 
Q 2697 1744 2272 1838 
L 1806 1941 
Q 1106 2091 782 2419 
Q 459 2747 459 3303 
Q 459 4000 909 4375 
Q 1359 4750 2203 4750 
Q 2588 4750 2994 4692 
Q 3400 4634 3834 4519 
z
" transform="scale(0.015625)"/>
      <path id="DejaVuSans-Bold-45" d="M 588 4666 
L 3834 4666 
L 3834 3756 
L 1791 3756 
L 1791 2888 
L 3713 2888 
L 3713 1978 
L 1791 1978 
L 1791 909 
L 3903 909 
L 3903 0 
L 588 0 
L 588 4666 
z
" transform="scale(0.015625)"/>
      <path id="DejaVuSans-Bold-20" transform="scale(0.015625)"/>
      <path id="DejaVuSans-Bold-3d" d="M 678 3084 
L 4684 3084 
L 4684 2350 
L 678 2350 
L 678 3084 
z
M 678 1663 
L 4684 1663 
L 4684 922 
L 678 922 
L 678 1663 
z
" transform="scale(0.015625)"/>
      <path id="DejaVuSans-Bold-30" d="M 2944 2338 
Q 2944 3213 2780 3570 
Q 2616 3928 2228 3928 
Q 1841 3928 1675 3570 
Q 1509 3213 1509 2338 
Q 1509 1453 1675 1090 
Q 1841 728 2228 728 
Q 2613 728 2778 1090 
Q 2944 1453 2944 2338 
z
M 4147 2328 
Q 4147 1169 3647 539 
Q 3147 -91 2228 -91 
Q 1306 -91 806 539 
Q 306 1169 306 2328 
Q 306 3491 806 4120 
Q 1306 4750 2228 4750 
Q 3147 4750 3647 4120 
Q 4147 3491 4147 2328 
z
" transform="scale(0.015625)"/>
      <path id="DejaVuSans-Bold-2e" d="M 653 1209 
L 1778 1209 
L 1778 0 
L 653 0 
L 653 1209 
z
" transform="scale(0.015625)"/>
      <path id="DejaVuSans-Bold-31" d="M 750 831 
L 1813 831 
L 1813 3847 
L 722 3622 
L 722 4441 
L 1806 4666 
L 2950 4666 
L 2950 831 
L 4013 831 
L 4013 0 
L 750 0 
L 750 831 
z
" transform="scale(0.015625)"/>
      <path id="DejaVuSans-Bold-37" d="M 428 4666 
L 3944 4666 
L 3944 3988 
L 2125 0 
L 953 0 
L 2675 3781 
L 428 3781 
L 428 4666 
z
" transform="scale(0.015625)"/>
     </defs>
     <use xlink:href="#DejaVuSans-Bold-53"/>
     <use xlink:href="#DejaVuSans-Bold-45" transform="translate(72.021484 0)"/>
     <use xlink:href="#DejaVuSans-Bold-20" transform="translate(140.332031 0)"/>
     <use xlink:href="#DejaVuSans-Bold-3d" transform="translate(175.146484 0)"/>
     <use xlink:href="#DejaVuSans-Bold-20" transform="translate(258.935547 0)"/>
     <use xlink:href="#DejaVuSans-Bold-30" transform="translate(293.75 0)"/>
     <use xlink:href="#DejaVuSans-Bold-2e" transform="translate(363.330078 0)"/>
     <use xlink:href="#DejaVuSans-Bold-31" transform="translate(401.318359 0)"/>
     <use xlink:href="#DejaVuSans-Bold-37" transform="translate(470.898438 0)"/>
    </g>
   </g>
   <g id="patch_5">
    <path d="M 146.229032 96.582032 
Q 158.969922 96.582032 170.257369 96.582032 
" style="fill: none; stroke: #2c4a7a; stroke-width: 1.3; stroke-linecap: round"/>
    <path d="M 165.857369 94.382032 
L 170.257369 96.582032 
L 165.857369 98.782032 
" style="fill: none; stroke: #2c4a7a; stroke-width: 1.3; stroke-linecap: round"/>
   </g>
   <g id="text_11">
    <!-- SE = 0.12 -->
    <g style="fill: #2c4a7a" transform="translate(93.1202 99.06547) scale(0.09 -0.09)">
     <defs>
      <path id="DejaVuSans-Bold-32" d="M 1844 884 
L 3897 884 
L 3897 0 
L 506 0 
L 506 884 
L 2209 2388 
Q 2438 2594 2547 2791 
Q 2656 2988 2656 3200 
Q 2656 3528 2436 3728 
Q 2216 3928 1850 3928 
Q 1569 3928 1234 3808 
Q 900 3688 519 3450 
L 519 4475 
Q 925 4609 1322 4679 
Q 1719 4750 2100 4750 
Q 2938 4750 3402 4381 
Q 3866 4013 3866 3353 
Q 3866 2972 3669 2642 
Q 3472 2313 2841 1759 
L 1844 884 
z
" transform="scale(0.015625)"/>
     </defs>
     <use xlink:href="#DejaVuSans-Bold-53"/>
     <use xlink:href="#DejaVuSans-Bold-45" transform="translate(72.021484 0)"/>
     <use xlink:href="#DejaVuSans-Bold-20" transform="translate(140.332031 0)"/>
     <use xlink:href="#DejaVuSans-Bold-3d" transform="translate(175.146484 0)"/>
     <use xlink:href="#DejaVuSans-Bold-20" transform="translate(258.935547 0)"/>
     <use xlink:href="#DejaVuSans-Bold-30" transform="translate(293.75 0)"/>
     <use xlink:href="#DejaVuSans-Bold-2e" transform="translate(363.330078 0)"/>
     <use xlink:href="#DejaVuSans-Bold-31" transform="translate(401.318359 0)"/>
     <use xlink:href="#DejaVuSans-Bold-32" transform="translate(470.898438 0)"/>
    </g>
   </g>
   <g id="legend_1">
    <g id="patch_6">
     <path d="M 28.145937 40.820625 
L 111.149844 40.820625 
Q 112.949844 40.820625 112.949844 39.020625 
L 112.949844 13.5 
Q 112.949844 11.7 111.149844 11.7 
L 28.145937 11.7 
Q 26.345937 11.7 26.345937 13.5 
L 26.345937 39.020625 
Q 26.345937 40.820625 28.145937 40.820625 
L 28.145937 40.820625 
z
" style="fill: none; opacity: 0.85; stroke: #bdbdbd; stroke-linejoin: miter"/>
    </g>
    <g id="line2d_11">
     <path d="M 29.945937 18.988594 
L 38.945937 18.988594 
L 47.945937 18.988594 
" style="fill: none; stroke: #7a2a35; stroke-width: 2; stroke-linecap: square"/>
    </g>
    <g id="text_12">
     <!-- Unadjusted -->
     <g transform="translate(55.145938 22.138594) scale(0.09 -0.09)">
      <defs>
       <path id="DejaVuSans-55" d="M 556 4666 
L 1191 4666 
L 1191 1831 
Q 1191 1081 1462 751 
Q 1734 422 2344 422 
Q 2950 422 3222 751 
Q 3494 1081 3494 1831 
L 3494 4666 
L 4128 4666 
L 4128 1753 
Q 4128 841 3676 375 
Q 3225 -91 2344 -91 
Q 1459 -91 1007 375 
Q 556 841 556 1753 
L 556 4666 
z
" transform="scale(0.015625)"/>
       <path id="DejaVuSans-64" d="M 2906 2969 
L 2906 4863 
L 3481 4863 
L 3481 0 
L 2906 0 
L 2906 525 
Q 2725 213 2448 61 
Q 2172 -91 1784 -91 
Q 1150 -91 751 415 
Q 353 922 353 1747 
Q 353 2572 751 3078 
Q 1150 3584 1784 3584 
Q 2172 3584 2448 3432 
Q 2725 3281 2906 2969 
z
M 947 1747 
Q 947 1113 1208 752 
Q 1469 391 1925 391 
Q 2381 391 2643 752 
Q 2906 1113 2906 1747 
Q 2906 2381 2643 2742 
Q 2381 3103 1925 3103 
Q 1469 3103 1208 2742 
Q 947 2381 947 1747 
z
" transform="scale(0.015625)"/>
       <path id="DejaVuSans-6a" d="M 603 3500 
L 1178 3500 
L 1178 -63 
Q 1178 -731 923 -1031 
Q 669 -1331 103 -1331 
L -116 -1331 
L -116 -844 
L 38 -844 
Q 366 -844 484 -692 
Q 603 -541 603 -63 
L 603 3500 
z
M 603 4863 
L 1178 4863 
L 1178 4134 
L 603 4134 
L 603 4863 
z
" transform="scale(0.015625)"/>
       <path id="DejaVuSans-75" d="M 544 1381 
L 544 3500 
L 1119 3500 
L 1119 1403 
Q 1119 906 1312 657 
Q 1506 409 1894 409 
Q 2359 409 2629 706 
Q 2900 1003 2900 1516 
L 2900 3500 
L 3475 3500 
L 3475 0 
L 2900 0 
L 2900 538 
Q 2691 219 2414 64 
Q 2138 -91 1772 -91 
Q 1169 -91 856 284 
Q 544 659 544 1381 
z
M 1991 3584 
L 1991 3584 
z
" transform="scale(0.015625)"/>
      </defs>
      <use xlink:href="#DejaVuSans-55"/>
      <use xlink:href="#DejaVuSans-6e" transform="translate(73.193359 0)"/>
      <use xlink:href="#DejaVuSans-61" transform="translate(136.572266 0)"/>
      <use xlink:href="#DejaVuSans-64" transform="translate(197.851562 0)"/>
      <use xlink:href="#DejaVuSans-6a" transform="translate(261.328125 0)"/>
      <use xlink:href="#DejaVuSans-75" transform="translate(289.111328 0)"/>
      <use xlink:href="#DejaVuSans-73" transform="translate(352.490234 0)"/>
      <use xlink:href="#DejaVuSans-74" transform="translate(404.589844 0)"/>
      <use xlink:href="#DejaVuSans-65" transform="translate(443.798828 0)"/>
      <use xlink:href="#DejaVuSans-64" transform="translate(505.322266 0)"/>
     </g>
    </g>
    <g id="line2d_12">
     <path d="M 29.945937 32.198906 
L 38.945937 32.198906 
L 47.945937 32.198906 
" style="fill: none; stroke: #2c4a7a; stroke-width: 2.2; stroke-linecap: square"/>
    </g>
    <g id="text_13">
     <!-- With CUPED -->
     <g transform="translate(55.145938 35.348906) scale(0.09 -0.09)">
      <defs>
       <path id="DejaVuSans-57" d="M 213 4666 
L 850 4666 
L 1831 722 
L 2809 4666 
L 3519 4666 
L 4500 722 
L 5478 4666 
L 6119 4666 
L 4947 0 
L 4153 0 
L 3169 4050 
L 2175 0 
L 1381 0 
L 213 4666 
z
" transform="scale(0.015625)"/>
       <path id="DejaVuSans-68" d="M 3513 2113 
L 3513 0 
L 2938 0 
L 2938 2094 
Q 2938 2591 2744 2837 
Q 2550 3084 2163 3084 
Q 1697 3084 1428 2787 
Q 1159 2491 1159 1978 
L 1159 0 
L 581 0 
L 581 4863 
L 1159 4863 
L 1159 2956 
Q 1366 3272 1645 3428 
Q 1925 3584 2291 3584 
Q 2894 3584 3203 3211 
Q 3513 2838 3513 2113 
z
" transform="scale(0.015625)"/>
       <path id="DejaVuSans-43" d="M 4122 4306 
L 4122 3641 
Q 3803 3938 3442 4084 
Q 3081 4231 2675 4231 
Q 1875 4231 1450 3742 
Q 1025 3253 1025 2328 
Q 1025 1406 1450 917 
Q 1875 428 2675 428 
Q 3081 428 3442 575 
Q 3803 722 4122 1019 
L 4122 359 
Q 3791 134 3420 21 
Q 3050 -91 2638 -91 
Q 1578 -91 968 557 
Q 359 1206 359 2328 
Q 359 3453 968 4101 
Q 1578 4750 2638 4750 
Q 3056 4750 3426 4639 
Q 3797 4528 4122 4306 
z
" transform="scale(0.015625)"/>
       <path id="DejaVuSans-50" d="M 1259 4147 
L 1259 2394 
L 2053 2394 
Q 2494 2394 2734 2622 
Q 2975 2850 2975 3272 
Q 2975 3691 2734 3919 
Q 2494 4147 2053 4147 
L 1259 4147 
z
M 628 4666 
L 2053 4666 
Q 2838 4666 3239 4311 
Q 3641 3956 3641 3272 
Q 3641 2581 3239 2228 
Q 2838 1875 2053 1875 
L 1259 1875 
L 1259 0 
L 628 0 
L 628 4666 
z
" transform="scale(0.015625)"/>
       <path id="DejaVuSans-45" d="M 628 4666 
L 3578 4666 
L 3578 4134 
L 1259 4134 
L 1259 2753 
L 3481 2753 
L 3481 2222 
L 1259 2222 
L 1259 531 
L 3634 531 
L 3634 0 
L 628 0 
L 628 4666 
z
" transform="scale(0.015625)"/>
      </defs>
      <use xlink:href="#DejaVuSans-57"/>
      <use xlink:href="#DejaVuSans-69" transform="translate(96.626953 0)"/>
      <use xlink:href="#DejaVuSans-74" transform="translate(124.410156 0)"/>
      <use xlink:href="#DejaVuSans-68" transform="translate(163.619141 0)"/>
      <use xlink:href="#DejaVuSans-20" transform="translate(226.998047 0)"/>
      <use xlink:href="#DejaVuSans-43" transform="translate(258.785156 0)"/>
      <use xlink:href="#DejaVuSans-55" transform="translate(328.609375 0)"/>
      <use xlink:href="#DejaVuSans-50" transform="translate(401.802734 0)"/>
      <use xlink:href="#DejaVuSans-45" transform="translate(462.105469 0)"/>
      <use xlink:href="#DejaVuSans-44" transform="translate(525.289062 0)"/>
     </g>
    </g>
   </g>
  </g>
 </g>
 <defs>
  <clipPath id="pf78d6668e4">
   <rect x="21.845937" y="7.2" width="362.7" height="221.76"/>
  </clipPath>
 </defs>
</svg>
